<?xml version="1.0" encoding="utf-8"?>
<!-- Generator: Adobe Illustrator 24.0.2, SVG Export Plug-In . SVG Version: 6.00 Build 0)  -->
<svg version="1.1" id="OBJECTS" xmlns="http://www.w3.org/2000/svg" xmlns:xlink="http://www.w3.org/1999/xlink" x="0px" y="0px"
	 viewBox="0 0 1547 1172.7" style="enable-background:new 0 0 1547 1172.7;" xml:space="preserve">
<style type="text/css">
	.st0{opacity:0.5;}
	.st1{clip-path:url(#SVGID_2_);}
	.st2{fill:none;stroke:#5BC2E5;stroke-width:0.5;stroke-miterlimit:10;}
	.st3{fill:#5BC2E5;}
	.st4{clip-path:url(#SVGID_4_);}
</style>
<title>new</title>
<g class="st0">
	<g>
		<g>
			<defs>
				<rect id="SVGID_1_" x="751.9" y="0" width="795.1" height="740.9"/>
			</defs>
			<clipPath id="SVGID_2_">
				<use xlink:href="#SVGID_1_"  style="overflow:visible;"/>
			</clipPath>
			<g class="st1">
				<polyline class="st2" points="2369.3,803 2216.1,956.3 2068.2,926.7 1893.5,1101.5 				"/>
				<line class="st2" x1="2144.9" y1="990" x2="1952.6" y2="1182.2"/>
				<polyline class="st2" points="2187.9,780.2 2208.8,874.8 2048,1035.6 				"/>
				<polyline class="st2" points="2254.7,753.7 2275.7,848.4 2252.4,871.6 				"/>
				<polyline class="st2" points="2228.1,661.8 2096.4,793.5 2034.1,766.4 1966.4,834.1 1985.4,904.5 1851.3,1038.5 				"/>
				<polyline class="st2" points="2003.4,437 1924,516.4 2007,715 1821.5,900.5 				"/>
				<polyline class="st2" points="1675.8,905.4 1808,773.2 1798.8,693.1 1862.4,629.5 2040.9,681.1 2106.2,615.8 2057.5,491.2 				
					"/>
				<polyline class="st2" points="1917.7,365.6 1798.5,484.8 1813.4,545.7 1725.4,633.7 1743,697.4 1637.4,803 				"/>
				<polyline class="st2" points="1462.1,678.2 1606.3,693.3 1723.2,576.4 				"/>
				<polyline class="st2" points="1859.5,307.4 1773.8,393 1783,428.6 1754.5,457 1705.1,440.1 1625.5,519.8 1636.3,575.3 
					1578.5,633.1 				"/>
				<polyline class="st2" points="1759.3,207.2 1642.8,323.7 1661.8,423.9 1595.7,490 1521,478 1422.1,576.9 				"/>
				<polyline class="st2" points="1377.5,532.2 1436.1,473.5 1412.7,388.6 1567.7,233.6 1756.6,329.1 1818.9,266.8 				"/>
				<polyline class="st2" points="1720,168 1543.3,344.7 1427.6,292.5 1344.7,375.4 1359.9,460.4 1295.3,525 				"/>
				<polyline class="st2" points="1591.4,39.3 1505.8,125 1527,193 1467.5,252.6 				"/>
				<polyline class="st2" points="1411.3,-140.7 1339.1,-68.6 1402.8,192.7 1270.5,325 				"/>
				<polyline class="st2" points="1107.1,336.8 1190.6,253.3 1175.3,162.9 1288.1,50.2 1419.4,73.2 1522.3,-29.7 				"/>
				<polyline class="st2" points="1357.1,-194.9 1186.1,-23.9 1197.8,29.4 1036.3,191 				"/>
				<polyline class="st2" points="948.7,-35.6 1022.7,-109.6 1193.3,-79.8 1339.9,-226.4 				"/>
				<polyline class="st2" points="1095.8,-456.2 1112.1,20.4 1041.7,90.8 956.4,56.9 902.6,110.7 				"/>
				<polyline class="st2" points="818.7,48.4 808.8,-66.3 970.6,-228.1 1079.6,-212.5 1209.6,-342.5 				"/>
				<polyline class="st2" points="1110.7,-422.4 1039,-423.7 974.6,-359.4 994.3,-305.9 861.6,-173.2 806.1,-190.8 714,-98.8 				
					"/>
				<polyline class="st2" points="549.3,-242.7 700.5,-393.9 862.3,-336.4 965.8,-440 955,-505 1001,-551 				"/>
				<polyline class="st2" points="835.9,-697.2 888,-471.8 680.9,-264.6 708.6,-169.2 				"/>
				<polyline class="st2" points="472.1,-319.9 525.8,-373.6 599.4,-363.2 661.2,-425.1 634.1,-511.7 737,-614.6 941.5,-591.6 				
					"/>
				<polyline class="st2" points="608,-453.1 516.3,-464.3 411.2,-359.2 				"/>
				<polyline class="st2" points="734.3,-798.8 749.2,-708 668,-626.8 624.4,-640.1 522.7,-538.4 428.3,-560.5 372.8,-505 
					389.1,-456.2 351.6,-418.7 				"/>
				<polyline class="st2" points="618.5,-827.9 632.8,-729.7 497.4,-594.3 				"/>
				<circle class="st3" cx="2254.1" cy="871.6" r="15.3"/>
				<path class="st3" d="M1963.4,1193c-6,6-15.7,6-21.6,0l0,0c-6-6-6-15.6,0-21.6l0,0c6-6,15.6-6,21.6,0S1969.4,1187,1963.4,1193
					C1963.4,1193,1963.4,1193.1,1963.4,1193z"/>
				<path class="st3" d="M2134.1,1000.8c-6-6-6-15.6,0-21.6l0,0c6-6,15.6-6,21.6,0l0,0c6,6,6,15.6,0,21.6
					C2149.7,1006.7,2140,1006.7,2134.1,1000.8z"/>
				<path class="st3" d="M2037.2,1046.5L2037.2,1046.5c-6-6-6-15.6,0-21.6l0,0c6-6,15.6-6,21.6,0l0,0c6,6,6,15.6,0,21.6
					C2052.9,1052.4,2043.2,1052.4,2037.2,1046.5z"/>
				<circle class="st3" cx="2187.9" cy="780.2" r="15.3"/>
				<path class="st3" d="M1862.2,1049.4c-6,5.9-15.7,5.9-21.6,0l0,0c-6-6-6-15.6,0-21.6s15.6-6,21.6,0S1868.2,1043.4,1862.2,1049.4
					C1862.2,1049.4,1862.1,1049.4,1862.2,1049.4z"/>
				<path class="st2" d="M1799.9,922.1L1799.9,922.1c-6-6-6-15.6,0-21.6l0,0c6-6,15.6-6,21.6,0s6,15.6,0,21.6
					C1815.6,928.1,1805.9,928.1,1799.9,922.1z"/>
				<path class="st3" d="M1686.6,916.2c-6,6-15.7,6-21.6,0l0,0c-6-6-6-15.6,0-21.6l0,0c6-6,15.6-6,21.6,0S1692.6,910.2,1686.6,916.2
					C1686.6,916.2,1686.6,916.3,1686.6,916.2z"/>
				<path class="st3" d="M1626.6,813.8c-6-6-6-15.6,0-21.6l0,0c6-6,15.6-6,21.6,0l0,0c6,6,6,15.6,0,21.6S1632.6,819.8,1626.6,813.8z
					"/>
				<circle class="st2" cx="1734" cy="565.6" r="15.3"/>
				<circle class="st2" cx="1446.9" cy="676.6" r="15.3"/>
				<circle class="st2" cx="1567.7" cy="643.9" r="15.3"/>
				<circle class="st3" cx="1422.1" cy="576.9" r="15.3"/>
				<circle class="st3" cx="1377.5" cy="532.2" r="15.3"/>
				<circle class="st3" cx="1295.3" cy="525" r="15.3"/>
				
					<ellipse transform="matrix(0.1602 -0.9871 0.9871 0.1602 963.3636 1659.0983)" class="st2" cx="1456.7" cy="263.4" rx="15.3" ry="15.3"/>
				<path class="st2" d="M1248.9,346.7L1248.9,346.7c-6-5.9-6-15.6,0-21.6c5.9-6,15.6-5.9,21.6,0s6,15.6,0,21.6
					C1264.5,352.6,1254.8,352.6,1248.9,346.7z"/>
				<circle class="st3" cx="1107.1" cy="336.8" r="15.3"/>
				<circle class="st3" cx="1042" cy="183.2" r="15.3"/>
				<circle class="st2" cx="891.8" cy="121.5" r="15.3"/>
				
					<ellipse transform="matrix(9.802565e-03 -1 1 9.802565e-03 953.405 913.3971)" class="st2" cx="937.9" cy="-24.7" rx="15.3" ry="15.3"/>
				<path class="st3" d="M829.5,59.2c-6,6-15.6,5.9-21.6,0l0,0c-6-5.9-6-15.6,0-21.6c5.9-6,15.6-6,21.6,0
					C835.5,43.5,835.5,53.2,829.5,59.2L829.5,59.2z"/>
				<path class="st3" d="M703.2-88L703.2-88c-6-6-6-15.6,0-21.6l0,0c6-6,15.6-6,21.6,0l0,0c6,6,6,15.6,0,21.6
					C718.9-82,709.2-82,703.2-88z"/>
				<path class="st3" d="M719.4-158.4c-6,6-15.7,6-21.6,0c-6-6-6-15.6,0-21.6l0,0c6-6,15.6-6,21.6,0l0,0
					C725.4-174,725.4-164.4,719.4-158.4C719.4-158.3,719.4-158.3,719.4-158.4z"/>
				<circle class="st2" cx="538.4" cy="-231.9" r="15.3"/>
				<path class="st2" d="M450.5-298.3L450.5-298.3c-6-6-6-15.6,0-21.6l0,0c6-6,15.6-6,21.6,0s6,15.6,0,21.6S456.5-292.3,450.5-298.3
					z"/>
				<path class="st3" d="M400.4-348.4L400.4-348.4c-6-6-6-15.6,0-21.6l0,0c6-6,15.6-6,21.6,0s6,15.6,0,21.6S406.4-342.4,400.4-348.4
					z"/>
				<path class="st3" d="M597.2-442.2c-6-6-6-15.6,0-21.6l0,0c6-6,15.6-6,21.6,0l0,0c6,6,6,15.6,0,21.6
					C612.8-436.3,603.1-436.3,597.2-442.2z"/>
				<path class="st3" d="M340.8-407.9L340.8-407.9c-6-6-6-15.6,0-21.6l0,0c6-6,15.6-6,21.6,0s6,15.6,0,21.6
					C356.5-402,346.8-402,340.8-407.9z"/>
				<path class="st3" d="M508.2-583.5c-6,6-15.7,6-21.6,0c-6-6-6-15.6,0-21.6l0,0c6-6,15.6-6,21.6,0l0,0
					C514.2-599.1,514.2-589.5,508.2-583.5L508.2-583.5z"/>
				<path class="st2" d="M1871.9,1123.1L1871.9,1123.1c-6-6-6-15.6,0-21.6l0,0c6-6,15.6-6,21.6,0s6,15.6,0,21.6
					S1877.8,1129.1,1871.9,1123.1z"/>
				
					<rect x="1924.6" y="963" transform="matrix(0.7071 -0.7071 0.7071 0.7071 -115.7087 1671.4272)" class="st3" width="70.2" height="24.7"/>
				
					<rect x="2051.4" y="729.4" transform="matrix(0.7071 -0.7071 0.7071 0.7071 78.5452 1673.0823)" class="st3" width="15" height="24.7"/>
				
					<rect x="2070.3" y="712.9" transform="matrix(0.7071 -0.7071 0.7071 0.7071 94.9789 1679.8462)" class="st3" width="9.8" height="24.7"/>
				
					<rect x="2080.7" y="701" transform="matrix(0.7071 -0.7071 0.7071 0.7071 106.8689 1684.7855)" class="st3" width="13" height="24.7"/>
				
					<rect x="2096" y="664.6" transform="matrix(0.7071 -0.7071 0.7071 0.7071 143.2515 1699.833)" class="st3" width="55" height="24.7"/>
				
					<rect x="1815" y="785.3" transform="matrix(0.7071 -0.7071 0.7071 0.7071 -29.0322 1525.29)" class="st3" width="23.4" height="24.7"/>
				
					<rect x="1837.4" y="767.5" transform="matrix(0.7071 -0.7071 0.7071 0.7071 -11.1746 1532.6306)" class="st3" width="14.1" height="24.7"/>
				
					<rect x="1862.8" y="744.9" transform="matrix(0.7071 -0.7071 0.7071 0.7071 11.4064 1542.0618)" class="st3" width="8.7" height="24.7"/>
				
					<rect x="1868" y="720.6" transform="matrix(0.7071 -0.7071 0.7071 0.7071 35.6596 1552.0498)" class="st3" width="46.6" height="24.7"/>
				
					<rect x="1800" y="598.5" transform="matrix(0.7071 -0.7071 0.7071 0.7071 97.5309 1457.2566)" class="st3" width="15.7" height="24.7"/>
				
					<rect x="1820.3" y="580.7" transform="matrix(0.7071 -0.7071 0.7071 0.7071 115.4204 1464.6539)" class="st3" width="10.8" height="24.7"/>
				
					<rect x="1830.6" y="566.1" transform="matrix(0.7071 -0.7071 0.7071 0.7071 130.0005 1470.7074)" class="st3" width="19.5" height="24.7"/>
				
					<rect x="1859.9" y="537.8" transform="matrix(0.7071 -0.7071 0.7071 0.7071 158.2613 1482.449)" class="st3" width="17.4" height="24.7"/>
				
					<rect x="1877.7" y="520.5" transform="matrix(0.7071 -0.7071 0.7071 0.7071 175.6279 1489.6243)" class="st3" width="16.4" height="24.7"/>
				
					<rect x="1495.9" y="585" transform="matrix(0.7071 -0.7071 0.7071 0.7071 18.3274 1238.9215)" class="st3" width="17.6" height="24.7"/>
				
					<rect x="1523.8" y="557.7" transform="matrix(0.7071 -0.7071 0.7071 0.7071 45.5996 1250.2008)" class="st3" width="16.3" height="24.7"/>
				
					<rect x="1537.4" y="522.6" transform="matrix(0.7071 -0.7071 0.7071 0.7071 80.6461 1264.6797)" class="st3" width="59" height="24.7"/>
				
					<rect x="1513.1" y="571" transform="matrix(0.7071 -0.7071 0.7071 0.7071 32.2328 1244.5938)" class="st3" width="10.8" height="24.7"/>
				
					<rect x="1508.3" y="421.6" transform="matrix(0.7071 -0.7071 0.7071 0.7071 136.8416 1198.1725)" class="st3" width="12.9" height="24.7"/>
				
					<rect x="1524.4" y="405.5" transform="matrix(0.7071 -0.7071 0.7071 0.7071 152.9572 1204.8799)" class="st3" width="13" height="24.7"/>
				
					<rect x="1544.8" y="386.8" transform="matrix(0.7071 -0.7071 0.7071 0.7071 171.6706 1212.6642)" class="st3" width="9.8" height="24.7"/>
				
					<rect x="1553.1" y="372.9" transform="matrix(0.7071 -0.7071 0.7071 0.7071 185.4736 1218.363)" class="st3" width="20.6" height="24.7"/>
				
					<rect x="1574.9" y="347" transform="matrix(0.7071 -0.7071 0.7071 0.7071 211.4503 1229.149)" class="st3" width="29" height="24.7"/>
				
					<rect x="1530" y="207.1" transform="matrix(0.7071 -0.7071 0.7071 0.7071 295.7528 1152.9868)" class="st3" width="19.4" height="24.7"/>
				
					<rect x="1546.3" y="189.2" transform="matrix(0.7071 -0.7071 0.7071 0.7071 313.7413 1160.4579)" class="st3" width="22.8" height="24.7"/>
				
					<rect x="1574.6" y="155.4" transform="matrix(0.7071 -0.7071 0.7071 0.7071 347.4662 1174.3923)" class="st3" width="33.6" height="24.7"/>
				
					<rect x="1606.7" y="131.1" transform="matrix(0.7071 -0.7071 0.7071 0.7071 371.8541 1184.547)" class="st3" width="18.2" height="24.7"/>
				
					<rect x="1428.6" y="116" transform="matrix(0.7071 -0.7071 0.7071 0.7071 330.2562 1054.0247)" class="st3" width="17.6" height="24.7"/>
				
					<rect x="1452.7" y="92.1" transform="matrix(0.7071 -0.7071 0.7071 0.7071 354.1374 1063.9384)" class="st3" width="17.4" height="24.7"/>
				
					<rect x="1468.9" y="68.4" transform="matrix(0.7071 -0.7071 0.7071 0.7071 377.8866 1073.7914)" class="st3" width="32.5" height="24.7"/>
				
					<rect x="1502.8" y="40.2" transform="matrix(0.7071 -0.7071 0.7071 0.7071 406.0478 1085.4475)" class="st3" width="21" height="24.7"/>
				
					<rect x="1286.9" y="346.4" transform="matrix(0.7071 -0.7071 0.7071 0.7071 126.89 1023.7849)" class="st3" width="24.8" height="24.7"/>
				
					<rect x="1308.4" y="323" transform="matrix(0.7071 -0.7071 0.7071 0.7071 150.2189 1033.4009)" class="st3" width="28.2" height="24.7"/>
				
					<rect x="1339.9" y="296.6" transform="matrix(0.7071 -0.7071 0.7071 0.7071 176.696 1044.4033)" class="st3" width="18.4" height="24.7"/>
				
					<rect x="1359" y="282.8" transform="matrix(0.7071 -0.7071 0.7071 0.7071 190.4845 1050.111)" class="st3" width="7.6" height="24.7"/>
				
					<rect x="1366.3" y="271.3" transform="matrix(0.7071 -0.7071 0.7071 0.7071 201.9231 1054.8622)" class="st3" width="15.9" height="24.7"/>
				
					<rect x="1240.3" y="236.2" transform="matrix(0.7071 -0.7071 0.7071 0.7071 188.6243 952.5264)" class="st3" width="7.7" height="24.7"/>
				
					<rect x="1248.6" y="222" transform="matrix(0.7071 -0.7071 0.7071 0.7071 202.8369 958.4094)" class="st3" width="19.5" height="24.7"/>
				
					<rect x="1264.1" y="202" transform="matrix(0.7071 -0.7071 0.7071 0.7071 222.794 966.6321)" class="st3" width="28.2" height="24.7"/>
				
					<rect x="1304.8" y="166.8" transform="matrix(0.7071 -0.7071 0.7071 0.7071 258.0648 981.2686)" class="st3" width="17.4" height="24.7"/>
				
					<rect x="1323.8" y="152.4" transform="matrix(0.7071 -0.7071 0.7071 0.7071 272.4695 987.2467)" class="st3" width="8.2" height="24.7"/>
				
					<rect x="1207.1" y="45.8" transform="matrix(0.7071 -0.7071 0.7071 0.7071 314.039 874.4144)" class="st3" width="10.8" height="24.7"/>
				
					<rect x="1219.5" y="25.8" transform="matrix(0.7071 -0.7071 0.7071 0.7071 334.0179 882.6655)" class="st3" width="26" height="24.7"/>
				
					<rect x="1280" y="-32.4" transform="matrix(0.7071 -0.7071 0.7071 0.7071 392.1437 906.7162)" class="st3" width="21.2" height="24.7"/>
				
					<rect x="1243.8" y="6.3" transform="matrix(0.7071 -0.7071 0.7071 0.7071 353.5143 890.7022)" class="st3" width="16.3" height="24.7"/>
				
					<rect x="1259.9" y="-9.9" transform="matrix(0.7071 -0.7071 0.7071 0.7071 369.6903 897.3831)" class="st3" width="16.3" height="24.7"/>
				
					<rect x="1400.3" y="3.8" transform="matrix(0.7071 -0.7071 0.7071 0.7071 400.4402 999.0297)" class="st3" width="11.8" height="24.7"/>
				
					<rect x="1408.6" y="-12.3" transform="matrix(0.7071 -0.7071 0.7071 0.7071 416.5144 1005.6566)" class="st3" width="27.1" height="24.7"/>
				
					<rect x="1436" y="-34.9" transform="matrix(0.7071 -0.7071 0.7071 0.7071 439.0845 1014.9741)" class="st3" width="17.4" height="24.7"/>
				
					<rect x="1454.1" y="-51.5" transform="matrix(0.7071 -0.7071 0.7071 0.7071 455.7825 1021.9585)" class="st3" width="14.8" height="24.7"/>
				
					<rect x="997.9" y="21.5" transform="matrix(0.7071 -0.7071 0.7071 0.7071 269.2656 717.8357)" class="st3" width="6.5" height="24.7"/>
				
					<rect x="1007.3" y="10.5" transform="matrix(0.7071 -0.7071 0.7071 0.7071 280.3311 722.4087)" class="st3" width="9.8" height="24.7"/>
				
					<rect x="1015.8" y="-3.4" transform="matrix(0.7071 -0.7071 0.7071 0.7071 294.2185 728.1506)" class="st3" width="20.6" height="24.7"/>
				
					<rect x="1044.3" y="-28.7" transform="matrix(0.7071 -0.7071 0.7071 0.7071 319.4956 738.6019)" class="st3" width="14.1" height="24.7"/>
				
					<rect x="1058.5" y="-38.9" transform="matrix(0.7071 -0.7071 0.7071 0.7071 329.6615 742.8047)" class="st3" width="5.9" height="24.7"/>
				
					<rect x="1165.8" y="-169.8" transform="matrix(0.7071 -0.7071 0.7071 0.7071 454.293 781.7761)" class="st3" width="10" height="24.7"/>
				
					<rect x="1218.8" y="-225.6" transform="matrix(0.7071 -0.7071 0.7071 0.7071 510.0658 804.8242)" class="st3" width="15.5" height="24.7"/>
				
					<rect x="1191.7" y="-202.1" transform="matrix(0.7071 -0.7071 0.7071 0.7071 486.5759 795.1574)" class="st3" width="22.8" height="24.7"/>
				
					<rect x="1175.2" y="-184.6" transform="matrix(0.7071 -0.7071 0.7071 0.7071 468.9906 787.8185)" class="st3" width="20.6" height="24.7"/>
				
					<rect x="1000" y="-275.6" transform="matrix(0.7071 -0.7071 0.7071 0.7071 480.7348 634.0876)" class="st3" width="11.5" height="24.7"/>
				
					<rect x="1014" y="-293" transform="matrix(0.7071 -0.7071 0.7071 0.7071 498.1836 641.3236)" class="st3" width="18.4" height="24.7"/>
				
					<rect x="1030.2" y="-311.5" transform="matrix(0.7071 -0.7071 0.7071 0.7071 516.5873 648.9433)" class="st3" width="22.8" height="24.7"/>
				
					<rect x="1056.3" y="-332.1" transform="matrix(0.7071 -0.7071 0.7071 0.7071 537.2034 657.453)" class="st3" width="11.8" height="24.7"/>
				
					<rect x="867.6" y="-415.3" transform="matrix(0.7071 -0.7071 0.7071 0.7071 539.9988 497.8456)" class="st3" width="6.7" height="24.7"/>
				
					<rect x="877" y="-432.2" transform="matrix(0.7071 -0.7071 0.7071 0.7071 556.9459 504.8074)" class="st3" width="21.7" height="24.7"/>
				
					<rect x="894.7" y="-452.6" transform="matrix(0.7071 -0.7071 0.7071 0.7071 577.3042 513.3143)" class="st3" width="27.1" height="24.7"/>
				
					<rect x="926.6" y="-474.9" transform="matrix(0.7071 -0.7071 0.7071 0.7071 599.661 522.5877)" class="st3" width="8" height="24.7"/>
				
					<rect x="706.8" y="-458.2" transform="matrix(0.7071 -0.7071 0.7071 0.7071 524.1582 373.7515)" class="st3" width="12.8" height="24.7"/>
				
					<rect x="754" y="-516.7" transform="matrix(0.7071 -0.7071 0.7071 0.7071 582.7365 398.1021)" class="st3" width="35.8" height="24.7"/>
				
					<rect x="796.7" y="-552.5" transform="matrix(0.7071 -0.7071 0.7071 0.7071 618.4758 412.8393)" class="st3" width="21.7" height="24.7"/>
				
					<rect x="719.1" y="-472.6" transform="matrix(0.7071 -0.7071 0.7071 0.7071 538.635 379.8218)" class="st3" width="17.4" height="24.7"/>
				
					<rect x="734.6" y="-487.6" transform="matrix(0.7071 -0.7071 0.7071 0.7071 553.6152 385.9806)" class="st3" width="16.3" height="24.7"/>
				
					<rect x="554.1" y="-508" transform="matrix(0.7071 -0.7071 0.7071 0.7071 515.9881 254.391)" class="st3" width="21.9" height="24.7"/>
				
					<rect x="573" y="-528.4" transform="matrix(0.7071 -0.7071 0.7071 0.7071 536.3506 262.8468)" class="st3" width="25" height="24.7"/>
				
					<rect x="601.3" y="-559.3" transform="matrix(0.7071 -0.7071 0.7071 0.7071 567.3489 275.7223)" class="st3" width="30.4" height="24.7"/>
				
					<rect x="630.2" y="-584" transform="matrix(0.7071 -0.7071 0.7071 0.7071 591.9775 285.8814)" class="st3" width="21.7" height="24.7"/>
				
					<rect x="649.2" y="-600.7" transform="matrix(0.7071 -0.7071 0.7071 0.7071 608.6518 292.7708)" class="st3" width="17" height="24.7"/>
				
					<rect x="806.3" y="-245.3" transform="matrix(0.7071 -0.7071 0.7071 0.7071 402.38 505.515)" class="st3" width="10.3" height="24.7"/>
				
					<rect x="859.6" y="-301" transform="matrix(0.7071 -0.7071 0.7071 0.7071 458.1029 528.6103)" class="st3" width="15.1" height="24.7"/>
				
					<rect x="843.5" y="-284.9" transform="matrix(0.7071 -0.7071 0.7071 0.7071 442.0366 522.0109)" class="st3" width="15.2" height="24.7"/>
				
					<rect x="816.5" y="-261.2" transform="matrix(0.7071 -0.7071 0.7071 0.7071 418.2825 512.1569)" class="st3" width="21.7" height="24.7"/>
				
					<rect x="424.8" y="-463.4" transform="matrix(0.7071 -0.7071 0.7071 0.7071 445.8773 174.4185)" class="st3" width="17.4" height="24.7"/>
				
					<rect x="460.2" y="-498.6" transform="matrix(0.7071 -0.7071 0.7071 0.7071 481.1023 189.006)" class="st3" width="17.1" height="24.7"/>
				
					<rect x="448.4" y="-484.7" transform="matrix(0.7071 -0.7071 0.7071 0.7071 467.2702 183.3228)" class="st3" width="13" height="24.7"/>
				
					<rect x="407.3" y="-446.2" transform="matrix(0.7071 -0.7071 0.7071 0.7071 428.7058 167.3519)" class="st3" width="18.1" height="24.7"/>
				
					<rect x="623.8" y="-690.5" transform="matrix(0.7071 -0.7071 0.7071 0.7071 664.7693 248.6767)" class="st3" width="17.6" height="24.7"/>
				
					<rect x="674.3" y="-742" transform="matrix(0.7071 -0.7071 0.7071 0.7071 716.3562 270.0743)" class="st3" width="19.8" height="24.7"/>
				
					<rect x="641.2" y="-706.7" transform="matrix(0.7071 -0.7071 0.7071 0.7071 680.9753 255.3919)" class="st3" width="15.2" height="24.7"/>
				
					<rect x="654.5" y="-718.9" transform="matrix(0.7071 -0.7071 0.7071 0.7071 693.1894 260.4868)" class="st3" width="13" height="24.7"/>
				
					<rect x="510.3" y="-666.8" transform="matrix(0.7071 -0.7071 0.7071 0.7071 614.6729 175.1411)" class="st3" width="16.9" height="24.7"/>
				
					<rect x="527.1" y="-680" transform="matrix(0.7071 -0.7071 0.7071 0.7071 627.9072 180.5972)" class="st3" width="9.8" height="24.7"/>
				
					<rect x="538.8" y="-690.8" transform="matrix(0.7071 -0.7071 0.7071 0.7071 638.6591 185.0007)" class="st3" width="7.6" height="24.7"/>
				
					<rect x="555.8" y="-713" transform="matrix(0.7071 -0.7071 0.7071 0.7071 660.9257 194.2663)" class="st3" width="18.4" height="24.7"/>
				
					<rect x="572.1" y="-723.3" transform="matrix(0.7071 -0.7071 0.7071 0.7071 671.2357 198.526)" class="st3" width="6.4" height="24.7"/>
				
					<rect x="931" y="-120.5" transform="matrix(0.7071 -0.7071 0.7071 0.7071 350.6717 630.2741)" class="st3" width="10.3" height="24.7"/>
				
					<rect x="942.5" y="-136.1" transform="matrix(0.7071 -0.7071 0.7071 0.7071 366.226 636.6984)" class="st3" width="18.4" height="24.7"/>
				
					<rect x="970" y="-161.4" transform="matrix(0.7071 -0.7071 0.7071 0.7071 391.5398 647.2545)" class="st3" width="14.1" height="24.7"/>
				
					<rect x="986.3" y="-177.1" transform="matrix(0.7071 -0.7071 0.7071 0.7071 407.2542 653.7443)" class="st3" width="12.9" height="24.7"/>
				
					<rect x="1989.8" y="927.8" transform="matrix(0.7071 -0.7071 0.7071 0.7071 -80.5123 1685.9568)" class="st3" width="10.2" height="24.7"/>
				
					<rect x="2002.2" y="915.4" transform="matrix(0.7071 -0.7071 0.7071 0.7071 -68.0957 1691.146)" class="st3" width="10.2" height="24.7"/>
				
					<rect x="2029.1" y="888.5" transform="matrix(0.7071 -0.7071 0.7071 0.7071 -41.2148 1702.2343)" class="st3" width="10.2" height="24.7"/>
				<polyline class="st2" points="2835.4,1378.5 2682.1,1531.7 2534.2,1502.2 2359.5,1677 				"/>
				<line class="st2" x1="2610.9" y1="1565.4" x2="2418.6" y2="1757.7"/>
				<polyline class="st2" points="2653.9,1355.7 2674.9,1450.3 2514,1611.1 				"/>
				<polyline class="st2" points="2720.8,1329.2 2741.7,1423.8 2718.4,1447.1 				"/>
				<polyline class="st2" points="2694.1,1237.2 2562.4,1369 2500.2,1341.9 2432.4,1409.6 2451.4,1480 2317.4,1614 				"/>
				<polyline class="st2" points="2469.4,1012.5 2390.1,1091.8 2473.1,1290.4 2287.5,1476 				"/>
				<polyline class="st2" points="2141.8,1480.9 2274,1348.7 2264.8,1268.5 2328.4,1205 2506.9,1256.6 2572.2,1191.3 2523.6,1066.6 
									"/>
				<polyline class="st2" points="2383.7,941.1 2264.6,1060.3 2279.5,1121.2 2191.4,1209.2 2209,1272.8 2103.4,1378.4 				"/>
				<polyline class="st2" points="1928.1,1253.7 2072.3,1268.8 2189.2,1151.9 				"/>
				<polyline class="st2" points="2325.5,882.9 2239.9,968.5 2249,1004.1 2220.6,1032.5 2171.1,1015.6 2091.5,1095.2 2102.3,1150.8 
					2044.5,1208.5 				"/>
				<polyline class="st2" points="2225.3,782.7 2108.9,899.1 2127.8,999.3 2061.7,1065.5 1987,1053.5 1888.2,1152.3 				"/>
				<polyline class="st2" points="1843.5,1107.6 1902.2,1049 1878.7,964.1 2033.7,809.1 2222.6,904.6 2284.9,842.3 				"/>
				<polyline class="st2" points="2186,743.4 2009.3,920.1 1893.6,868 1810.7,950.8 1825.9,1035.9 1761.3,1100.4 				"/>
				<polyline class="st2" points="2057.4,614.8 1971.8,700.4 1993.1,768.5 1933.5,828.1 				"/>
				<polyline class="st2" points="1877.3,434.7 1805.2,506.9 1868.8,768.2 1736.5,900.5 				"/>
				<polyline class="st2" points="1573.1,912.2 1656.6,828.7 1641.4,738.4 1754.1,625.6 1885.5,648.7 1988.3,545.8 				"/>
				<polyline class="st2" points="1561.8,119.3 1578.1,595.9 1507.7,666.3 1422.4,632.4 1368.7,686.2 				"/>
				<polyline class="st2" points="1284.7,623.8 1274.8,509.2 1436.6,347.4 1545.6,363 1675.6,233 				"/>
				<polyline class="st2" points="1576.7,153.1 1505,151.8 1440.7,216.1 1460.3,269.6 1327.6,402.2 1272.1,384.6 1180,476.7 				"/>
				<polyline class="st2" points="1015.3,332.8 1166.5,181.6 1328.3,239.1 1431.9,135.5 1421,70.5 1467.1,24.5 				"/>
				<polyline class="st2" points="1301.9,-121.7 1354,103.7 1146.9,310.9 1174.6,406.3 				"/>
				<polyline class="st2" points="938.1,255.6 991.8,201.9 1065.4,212.2 1127.2,150.4 1100.2,63.7 1203.1,-39.1 1407.5,-16.1 				
					"/>
				<polyline class="st2" points="1074,122.4 982.4,111.1 877.2,216.3 				"/>
				<polyline class="st2" points="1200.4,-223.3 1215.2,-132.6 1134,-51.3 1090.4,-64.6 988.7,37.1 894.4,15 838.8,70.5 
					855.1,119.3 817.6,156.7 				"/>
				<polyline class="st2" points="1084.5,-252.5 1098.8,-154.2 963.4,-18.8 				"/>
				<circle class="st3" cx="2720.1" cy="1447.1" r="15.3"/>
				<path class="st3" d="M2407.8,1768.5L2407.8,1768.5c-6-6-6-15.6,0-21.6l0,0c6-6,15.6-6,21.6,0s6,15.6,0,21.6
					S2413.8,1774.5,2407.8,1768.5z"/>
				<path class="st3" d="M2621.7,1576.2c-6,6-15.7,6-21.6,0l0,0c-6-6-6-15.6,0-21.6s15.6-6,21.6,0l0,0
					C2627.7,1560.6,2627.7,1570.2,2621.7,1576.2L2621.7,1576.2z"/>
				<path class="st3" d="M2524.9,1621.9c-6.1,6-15.7,6-21.6,0l0,0c-6-6-6-15.6,0-21.6s15.6-6,21.6,0S2530.9,1615.9,2524.9,1621.9
					C2524.8,1621.9,2524.8,1621.9,2524.9,1621.9z"/>
				<path class="st3" d="M2643.1,1366.5L2643.1,1366.5c-6-6-6-15.6,0-21.6l0,0c6-6,15.6-6,21.6,0s6,15.6,0,21.6
					C2658.8,1372.4,2649.1,1372.4,2643.1,1366.5z"/>
				<path class="st3" d="M2328.2,1624.8c-6,6-15.7,6-21.6,0l0,0c-6-6-6-15.6,0-21.6s15.6-6,21.6,0l0,0
					C2334.2,1609.2,2334.2,1618.8,2328.2,1624.8C2328.2,1624.9,2328.1,1624.9,2328.2,1624.8z"/>
				<path class="st2" d="M2266,1497.6L2266,1497.6c-6-6-6-15.6,0-21.6l0,0c6-6,15.6-6,21.6,0s6,15.6,0,21.6
					C2281.6,1503.5,2271.9,1503.5,2266,1497.6z"/>
				<path class="st3" d="M2131,1491.6L2131,1491.6c-6-6-6-15.6,0-21.6l0,0c6-6,15.6-6,21.6,0s6,15.6,0,21.6S2137,1497.6,2131,1491.6
					z"/>
				<circle class="st3" cx="2103.4" cy="1378.4" r="15.3"/>
				<circle class="st2" cx="2200" cy="1141.1" r="15.3"/>
				<path class="st2" d="M1923.8,1262.9c-6,6-15.7,6-21.6,0c-6-6-6-15.6,0-21.6s15.6-6,21.6,0l0,0
					C1929.8,1247.3,1929.8,1256.9,1923.8,1262.9L1923.8,1262.9z"/>
				<path class="st2" d="M2044.5,1230.2c-6,6-15.6,5.9-21.6,0c-6-6-6-15.6,0-21.6s15.6-6,21.6,0l0,0
					C2050.5,1214.6,2050.5,1224.2,2044.5,1230.2L2044.5,1230.2z"/>
				<circle class="st3" cx="1888.2" cy="1152.3" r="15.3"/>
				<circle class="st3" cx="1843.5" cy="1107.6" r="15.3"/>
				<circle class="st3" cx="1761.3" cy="1100.4" r="15.3"/>
				<circle class="st2" cx="1922.7" cy="838.9" r="15.3"/>
				<path class="st2" d="M1714.9,922.1L1714.9,922.1c-6-6-6-15.6,0-21.6l0,0c6-6,15.6-6,21.6,0s6,15.6,0,21.6
					S1720.9,928.1,1714.9,922.1z"/>
				<circle class="st3" cx="1573.1" cy="912.2" r="15.3"/>
				<circle class="st3" cx="1502.3" cy="766.5" r="15.3"/>
				<path class="st2" d="M1368.8,707.8c-6.1,5.9-15.7,5.9-21.6,0c-6-6-6-15.6,0-21.6s15.6-6,21.6,0S1374.8,701.8,1368.8,707.8
					C1368.7,707.8,1368.7,707.8,1368.8,707.8z"/>
				<circle class="st3" cx="1284.7" cy="623.8" r="15.3"/>
				<path class="st3" d="M1190.9,487.5c-6,6-15.7,6-21.6,0l0,0c-6-5.9-5.9-15.6,0-21.6c5.9-6,15.6-6,21.6,0
					C1196.9,471.8,1196.9,481.5,1190.9,487.5C1190.8,487.5,1190.8,487.6,1190.9,487.5z"/>
				<circle class="st3" cx="1174.6" cy="406.3" r="15.3"/>
				<path class="st2" d="M1015.3,354.4c-6,6-15.7,6-21.6,0l0,0c-6-5.9-5.9-15.6,0-21.6s15.6-5.9,21.6,0S1021.3,348.4,1015.3,354.4
					L1015.3,354.4z"/>
				<circle class="st2" cx="927.3" cy="266.4" r="15.3"/>
				<circle class="st3" cx="877.2" cy="216.3" r="15.3"/>
				<path class="st3" d="M1069.5,133.2c-6,6-15.7,6-21.6,0l0,0c-6-5.9-6-15.6,0-21.6c5.9-6,15.6-6,21.6,0
					C1075.5,117.5,1075.5,127.2,1069.5,133.2C1069.5,133.3,1069.5,133.3,1069.5,133.2z"/>
				<circle class="st3" cx="817.6" cy="156.7" r="15.3"/>
				<path class="st3" d="M952.6-8c-6-6-6-15.6,0-21.6l0,0c6-6,15.6-6,21.6,0l0,0c6,6,6,15.6,0,21.6C968.2-2.1,958.6-2.1,952.6-8z"/>
				<path class="st2" d="M2337.9,1698.6L2337.9,1698.6c-6-6-6-15.6,0-21.6l0,0c6-6,15.7-6,21.6,0l0,0c6,6,6,15.6,0,21.6
					S2343.8,1704.6,2337.9,1698.6z"/>
				
					<rect x="2390.6" y="1538.5" transform="matrix(0.7071 -0.7071 0.7071 0.7071 -386.1407 2169.4797)" class="st3" width="70.2" height="24.7"/>
				
					<rect x="2517.3" y="1304.8" transform="matrix(0.7071 -0.7071 0.7071 0.7071 -191.879 2171.1245)" class="st3" width="15" height="24.7"/>
				
					<rect x="2536.2" y="1288.4" transform="matrix(0.7071 -0.7071 0.7071 0.7071 -175.4807 2177.8276)" class="st3" width="9.8" height="24.7"/>
				
					<rect x="2546.6" y="1276.5" transform="matrix(0.7071 -0.7071 0.7071 0.7071 -163.5789 2182.8513)" class="st3" width="13" height="24.7"/>
				
					<rect x="2562" y="1240.1" transform="matrix(0.7071 -0.7071 0.7071 0.7071 -127.1824 2197.8853)" class="st3" width="55" height="24.7"/>
				
					<rect x="2280.9" y="1360.8" transform="matrix(0.7071 -0.7071 0.7071 0.7071 -299.4798 2023.3364)" class="st3" width="23.4" height="24.7"/>
				
					<rect x="2303.5" y="1343" transform="matrix(0.7071 -0.7071 0.7071 0.7071 -281.6281 2030.7576)" class="st3" width="14.1" height="24.7"/>
				
					<rect x="2328.7" y="1320.3" transform="matrix(0.7071 -0.7071 0.7071 0.7071 -259.0297 2040.0336)" class="st3" width="8.7" height="24.7"/>
				
					<rect x="2334" y="1296.1" transform="matrix(0.7071 -0.7071 0.7071 0.7071 -234.788 2050.1018)" class="st3" width="46.6" height="24.7"/>
				
					<rect x="2266" y="1174" transform="matrix(0.7071 -0.7071 0.7071 0.7071 -172.846 1955.338)" class="st3" width="15.7" height="24.7"/>
				
					<rect x="2286.4" y="1156.2" transform="matrix(0.7071 -0.7071 0.7071 0.7071 -155.0194 1962.7671)" class="st3" width="10.8" height="24.7"/>
				
					<rect x="2296.5" y="1141.6" transform="matrix(0.7071 -0.7071 0.7071 0.7071 -140.447 1968.7595)" class="st3" width="19.5" height="24.7"/>
				
					<rect x="2326" y="1113.2" transform="matrix(0.7071 -0.7071 0.7071 0.7071 -112.0922 1980.5206)" class="st3" width="17.4" height="24.7"/>
				
					<rect x="2343.8" y="1095.9" transform="matrix(0.7071 -0.7071 0.7071 0.7071 -94.7785 1987.6902)" class="st3" width="16.4" height="24.7"/>
				
					<rect x="1961.8" y="1160.5" transform="matrix(0.7071 -0.7071 0.7071 0.7071 -252.1105 1736.9639)" class="st3" width="17.6" height="24.7"/>
				
					<rect x="1989.8" y="1133.2" transform="matrix(0.7071 -0.7071 0.7071 0.7071 -224.844 1748.257)" class="st3" width="16.3" height="24.7"/>
				
					<rect x="2003.4" y="1098.1" transform="matrix(0.7071 -0.7071 0.7071 0.7071 -189.7878 1762.7455)" class="st3" width="59" height="24.7"/>
				
					<rect x="1979.2" y="1146.6" transform="matrix(0.7071 -0.7071 0.7071 0.7071 -238.2167 1742.7303)" class="st3" width="10.8" height="24.7"/>
				
					<rect x="1974.3" y="997.1" transform="matrix(0.7071 -0.7071 0.7071 0.7071 -133.6314 1696.2993)" class="st3" width="12.9" height="24.7"/>
				
					<rect x="1990.4" y="981" transform="matrix(0.7071 -0.7071 0.7071 0.7071 -117.5042 1702.932)" class="st3" width="13" height="24.7"/>
				
					<rect x="2010.7" y="962.3" transform="matrix(0.7071 -0.7071 0.7071 0.7071 -98.7948 1710.6929)" class="st3" width="9.8" height="24.7"/>
				
					<rect x="2019.2" y="948.3" transform="matrix(0.7071 -0.7071 0.7071 0.7071 -84.8799 1716.4485)" class="st3" width="20.6" height="24.7"/>
				
					<rect x="2040.9" y="922.5" transform="matrix(0.7071 -0.7071 0.7071 0.7071 -58.9875 1727.1915)" class="st3" width="29" height="24.7"/>
				
					<rect x="1996" y="782.7" transform="matrix(0.7071 -0.7071 0.7071 0.7071 25.3034 1651.1234)" class="st3" width="19.4" height="24.7"/>
				
					<rect x="2012.2" y="764.6" transform="matrix(0.7071 -0.7071 0.7071 0.7071 43.2937 1658.51)" class="st3" width="22.8" height="24.7"/>
				
					<rect x="2040.5" y="730.9" transform="matrix(0.7071 -0.7071 0.7071 0.7071 77.0186 1672.4581)" class="st3" width="33.6" height="24.7"/>
				
					<rect x="2072.8" y="706.4" transform="matrix(0.7071 -0.7071 0.7071 0.7071 101.5006 1682.6187)" class="st3" width="18.2" height="24.7"/>
				
					<rect x="1894.8" y="691.5" transform="matrix(0.7071 -0.7071 0.7071 0.7071 59.8734 1552.1808)" class="st3" width="17.6" height="24.7"/>
				
					<rect x="1918.6" y="667.6" transform="matrix(0.7071 -0.7071 0.7071 0.7071 83.6994 1561.9945)" class="st3" width="17.4" height="24.7"/>
				
					<rect x="1934.9" y="643.8" transform="matrix(0.7071 -0.7071 0.7071 0.7071 107.5234 1571.8729)" class="st3" width="32.5" height="24.7"/>
				
					<rect x="1968.7" y="615.7" transform="matrix(0.7071 -0.7071 0.7071 0.7071 135.5905 1583.49)" class="st3" width="21" height="24.7"/>
				
					<rect x="1752.8" y="921.8" transform="matrix(0.7071 -0.7071 0.7071 0.7071 -143.5478 1521.8274)" class="st3" width="24.8" height="24.7"/>
				
					<rect x="1774.5" y="898.4" transform="matrix(0.7071 -0.7071 0.7071 0.7071 -120.154 1531.4862)" class="st3" width="28.2" height="24.7"/>
				
					<rect x="1805.8" y="872" transform="matrix(0.7071 -0.7071 0.7071 0.7071 -93.7516 1542.4553)" class="st3" width="18.4" height="24.7"/>
				
					<rect x="1825" y="858.2" transform="matrix(0.7071 -0.7071 0.7071 0.7071 -79.926 1548.1671)" class="st3" width="7.6" height="24.7"/>
				
					<rect x="1832.3" y="846.8" transform="matrix(0.7071 -0.7071 0.7071 0.7071 -68.5148 1552.9045)" class="st3" width="15.9" height="24.7"/>
				
					<rect x="1706.3" y="811.7" transform="matrix(0.7071 -0.7071 0.7071 0.7071 -81.7999 1450.5825)" class="st3" width="7.7" height="24.7"/>
				
					<rect x="1714.6" y="797.4" transform="matrix(0.7071 -0.7071 0.7071 0.7071 -67.5304 1456.4812)" class="st3" width="19.5" height="24.7"/>
				
					<rect x="1730.2" y="777.4" transform="matrix(0.7071 -0.7071 0.7071 0.7071 -47.5732 1464.7177)" class="st3" width="28.2" height="24.7"/>
				
					<rect x="1770.8" y="742.2" transform="matrix(0.7071 -0.7071 0.7071 0.7071 -12.3595 1479.3112)" class="st3" width="17.4" height="24.7"/>
				
					<rect x="1789.8" y="727.9" transform="matrix(0.7071 -0.7071 0.7071 0.7071 2.0219 1485.285)" class="st3" width="8.2" height="24.7"/>
				
					<rect x="1673.1" y="621.1" transform="matrix(0.7071 -0.7071 0.7071 0.7071 43.6776 1372.4114)" class="st3" width="10.8" height="24.7"/>
				
					<rect x="1685.5" y="601.3" transform="matrix(0.7071 -0.7071 0.7071 0.7071 63.5839 1380.7177)" class="st3" width="26" height="24.7"/>
				
					<rect x="1746" y="543" transform="matrix(0.7071 -0.7071 0.7071 0.7071 121.7805 1404.7782)" class="st3" width="21.2" height="24.7"/>
				
					<rect x="1709.9" y="581.7" transform="matrix(0.7071 -0.7071 0.7071 0.7071 83.1314 1388.8446)" class="st3" width="16.3" height="24.7"/>
				
					<rect x="1725.9" y="565.6" transform="matrix(0.7071 -0.7071 0.7071 0.7071 99.2427 1395.4352)" class="st3" width="16.3" height="24.7"/>
				
					<rect x="1866.3" y="579.3" transform="matrix(0.7071 -0.7071 0.7071 0.7071 130.0063 1497.0955)" class="st3" width="11.8" height="24.7"/>
				
					<rect x="1874.6" y="563.2" transform="matrix(0.7071 -0.7071 0.7071 0.7071 146.0667 1503.7087)" class="st3" width="27.1" height="24.7"/>
				
					<rect x="1902" y="540.6" transform="matrix(0.7071 -0.7071 0.7071 0.7071 168.6506 1513.0399)" class="st3" width="17.4" height="24.7"/>
				
					<rect x="1920.1" y="523.9" transform="matrix(0.7071 -0.7071 0.7071 0.7071 185.3959 1520.0303)" class="st3" width="14.8" height="24.7"/>
				
					<rect x="1631.8" y="405.6" transform="matrix(0.7071 -0.7071 0.7071 0.7071 183.8591 1279.8419)" class="st3" width="10" height="24.7"/>
				
					<rect x="1684.9" y="349.8" transform="matrix(0.7071 -0.7071 0.7071 0.7071 239.683 1302.9666)" class="st3" width="15.5" height="24.7"/>
				
					<rect x="1657.7" y="373.4" transform="matrix(0.7071 -0.7071 0.7071 0.7071 216.142 1293.2233)" class="st3" width="22.8" height="24.7"/>
				
					<rect x="1641.2" y="390.9" transform="matrix(0.7071 -0.7071 0.7071 0.7071 198.543 1285.8843)" class="st3" width="20.6" height="24.7"/>
				
					<rect x="1008" y="287.4" transform="matrix(0.7071 -0.7071 0.7071 0.7071 85.1311 805.0707)" class="st3" width="12.8" height="24.7"/>
				
					<rect x="1055.1" y="228.8" transform="matrix(0.7071 -0.7071 0.7071 0.7071 143.7289 829.3603)" class="st3" width="35.8" height="24.7"/>
				
					<rect x="1097.8" y="193.2" transform="matrix(0.7071 -0.7071 0.7071 0.7071 179.3681 844.1389)" class="st3" width="21.7" height="24.7"/>
				
					<rect x="1020.2" y="272.9" transform="matrix(0.7071 -0.7071 0.7071 0.7071 99.6275 811.08)" class="st3" width="17.4" height="24.7"/>
				
					<rect x="1035.7" y="258" transform="matrix(0.7071 -0.7071 0.7071 0.7071 114.5508 817.3095)" class="st3" width="16.3" height="24.7"/>
				
					<rect x="1089.8" y="-114.9" transform="matrix(0.7071 -0.7071 0.7071 0.7071 394.3199 746.8132)" class="st3" width="17.6" height="24.7"/>
				
					<rect x="1140.3" y="-166.6" transform="matrix(0.7071 -0.7071 0.7071 0.7071 445.932 768.1304)" class="st3" width="19.8" height="24.7"/>
				
					<rect x="1107.2" y="-131.1" transform="matrix(0.7071 -0.7071 0.7071 0.7071 410.5121 753.5148)" class="st3" width="15.2" height="24.7"/>
				
					<rect x="1120.6" y="-143.5" transform="matrix(0.7071 -0.7071 0.7071 0.7071 422.8261 758.5683)" class="st3" width="13" height="24.7"/>
				
					<rect x="976.3" y="-91.3" transform="matrix(0.7071 -0.7071 0.7071 0.7071 344.235 673.1971)" class="st3" width="16.9" height="24.7"/>
				
					<rect x="993" y="-104.6" transform="matrix(0.7071 -0.7071 0.7071 0.7071 357.5145 678.6355)" class="st3" width="9.8" height="24.7"/>
				
					<rect x="1004.9" y="-115.3" transform="matrix(0.7071 -0.7071 0.7071 0.7071 368.2115 683.0802)" class="st3" width="7.6" height="24.7"/>
				
					<rect x="1021.8" y="-137.5" transform="matrix(0.7071 -0.7071 0.7071 0.7071 390.4918 692.3322)" class="st3" width="18.4" height="24.7"/>
				
					<rect x="1038.1" y="-147.9" transform="matrix(0.7071 -0.7071 0.7071 0.7071 400.8155 696.5781)" class="st3" width="6.4" height="24.7"/>
				
					<rect x="1397" y="455" transform="matrix(0.7071 -0.7071 0.7071 0.7071 80.2377 1128.34)" class="st3" width="10.3" height="24.7"/>
				
					<rect x="1408.6" y="439.4" transform="matrix(0.7071 -0.7071 0.7071 0.7071 95.8433 1134.8407)" class="st3" width="18.4" height="24.7"/>
				
					<rect x="1436" y="414.1" transform="matrix(0.7071 -0.7071 0.7071 0.7071 121.1059 1145.3065)" class="st3" width="14.1" height="24.7"/>
				
					<rect x="1452.2" y="398.5" transform="matrix(0.7071 -0.7071 0.7071 0.7071 136.7664 1151.8005)" class="st3" width="13" height="24.7"/>
				
					<rect x="2455.8" y="1503.3" transform="matrix(0.7071 -0.7071 0.7071 0.7071 -350.9599 2184.0801)" class="st3" width="10.2" height="24.7"/>
				
					<rect x="2468.3" y="1490.8" transform="matrix(0.7071 -0.7071 0.7071 0.7071 -338.4844 2189.2139)" class="st3" width="10.2" height="24.7"/>
				
					<rect x="2495.1" y="1464.1" transform="matrix(0.7071 -0.7071 0.7071 0.7071 -311.6721 2200.3672)" class="st3" width="10.2" height="24.7"/>
			</g>
		</g>
	</g>
</g>
<g class="st0">
	<g>
		<g>
			<defs>
				<rect id="SVGID_3_" x="0" y="506" width="719.8" height="670.8"/>
			</defs>
			<clipPath id="SVGID_4_">
				<use xlink:href="#SVGID_3_"  style="overflow:visible;"/>
			</clipPath>
			<g class="st4">
				<polyline class="st2" points="-744.5,449.8 -605.7,311 -471.9,337.8 -313.6,179.6 				"/>
				<line class="st2" x1="-541.2" y1="280.5" x2="-367.2" y2="106.5"/>
				<polyline class="st2" points="-580.2,470.5 -599.2,384.8 -453.6,239.2 				"/>
				<polyline class="st2" points="-640.7,494.4 -659.7,408.7 -638.6,387.7 				"/>
				<polyline class="st2" points="-616.6,577.7 -497.4,458.4 -441,482.9 -379.7,421.6 -396.9,357.9 -275.5,236.5 				"/>
				<polyline class="st2" points="-413.2,781.1 -341.3,709.3 -416.5,529.5 -248.5,361.6 				"/>
				<polyline class="st2" points="-116.6,357.1 -236.3,476.8 -227.9,549.3 -285.5,606.9 -447.1,560.1 -506.2,619.2 -462.2,732.1 
									"/>
				<polyline class="st2" points="-335.6,845.8 -227.7,737.9 -241.2,682.7 -161.5,603 -177.4,545.4 -81.8,449.8 				"/>
				<polyline class="st2" points="76.9,562.8 -53.7,549.1 -159.5,654.9 				"/>
				<polyline class="st2" points="-282.9,898.5 -205.4,820.9 -213.6,788.8 -187.9,763 -143.1,778.3 -71,706.2 -80.8,656 
					-28.5,603.6 				"/>
				<polyline class="st2" points="-192.2,989.2 -86.7,883.8 -103.9,793 -44,733.2 23.6,744 113.1,654.5 				"/>
				<polyline class="st2" points="153.5,695 100.4,748.1 121.6,824.9 -18.7,965.3 -189.7,878.8 -246.1,935.2 				"/>
				<polyline class="st2" points="-156.6,1024.7 3.4,864.8 108.1,911.9 183.2,836.9 169.5,759.9 227.9,701.5 				"/>
				<polyline class="st2" points="-40.2,1141.2 37.3,1063.6 18.1,1002 72,948.1 				"/>
				<polyline class="st2" points="122.9,1304.2 188.2,1238.8 130.6,1002.3 250.4,882.5 				"/>
				<polyline class="st2" points="398.3,871.9 322.7,947.5 336.5,1029.3 234.4,1131.4 115.5,1110.5 22.4,1203.7 				"/>
				<polyline class="st2" points="171.9,1353.2 326.7,1198.4 316.2,1150.1 462.4,1003.9 				"/>
				<polyline class="st2" points="541.7,1209 474.7,1276 320.2,1249 187.5,1381.8 				"/>
				<polyline class="st2" points="408.5,1589.8 393.8,1158.3 457.5,1094.6 534.7,1125.2 583.4,1076.6 				"/>
				<polyline class="st2" points="659.4,1133 668.3,1236.8 521.8,1383.3 423.2,1369.2 305.5,1486.8 				"/>
				<polyline class="st2" points="395,1559.2 460,1560.4 518.2,1502.1 500.4,1453.7 620.5,1333.6 670.8,1349.5 754.1,1266.2 				"/>
				<polyline class="st2" points="903.3,1396.5 766.4,1533.4 619.9,1481.3 526.1,1575.1 535.9,1633.9 494.3,1675.6 				"/>
				<polyline class="st2" points="643.8,1808 596.6,1603.9 784.2,1416.4 759.1,1329.9 				"/>
				<polyline class="st2" points="973.2,1466.4 924.5,1515 857.9,1505.6 802,1561.6 826.5,1640.1 733.3,1733.2 548.2,1712.4 				"/>
				<polyline class="st2" points="850.2,1586.9 933.1,1597.2 1028.3,1501.9 				"/>
				<polyline class="st2" points="735.8,1899.9 722.3,1817.8 795.8,1744.2 835.3,1756.3 927.4,1664.2 1012.8,1684.2 1063,1633.9 
					1048.3,1589.8 1082.2,1555.9 				"/>
				<polyline class="st2" points="840.6,1926.3 827.7,1837.4 950.3,1714.8 				"/>
				<circle class="st3" cx="-640.1" cy="387.7" r="13.8"/>
				<path class="st3" d="M-376.9,96.7c5.4-5.4,14.2-5.4,19.6,0c5.4,5.4,5.4,14.2,0,19.6s-14.2,5.4-19.6,0S-382.3,102.1-376.9,96.7
					C-376.9,96.7-376.9,96.6-376.9,96.7z"/>
				<circle class="st3" cx="-541.2" cy="280.5" r="13.8"/>
				<path class="st3" d="M-463.3,229.4c5.4-5.4,14.1-5.4,19.6,0c5.4,5.4,5.4,14.2,0,19.6s-14.2,5.4-19.6,0
					C-468.7,243.6-468.7,234.8-463.3,229.4L-463.3,229.4z"/>
				<path class="st3" d="M-590,460.7c5.5-5.5,14.2-5.4,19.6,0l0,0c5.4,5.4,5.4,14.2,0,19.6c-5.4,5.4-14.2,5.4-19.6,0
					S-595.4,466.1-590,460.7C-590,460.7-589.9,460.6-590,460.7z"/>
				<path class="st3" d="M-265.7,226.7L-265.7,226.7c5.4,5.4,5.4,14.2,0,19.6s-14.2,5.4-19.6,0c-5.4-5.4-5.4-14.2,0-19.6
					S-271.1,221.3-265.7,226.7z"/>
				<path class="st2" d="M-229,342c5.4,5.4,5.4,14.2,0,19.6s-14.2,5.4-19.6,0s-5.4-14.2,0-19.6S-234.4,336.6-229,342z"/>
				<circle class="st3" cx="-116.6" cy="357.1" r="13.8"/>
				<circle class="st3" cx="-81.8" cy="449.8" r="13.8"/>
				<path class="st2" d="M-159.4,654.9c5.4,5.4,5.4,14.2,0,19.6s-14.2,5.4-19.6,0c-5.4-5.4-5.4-14.2,0-19.6
					S-164.9,649.5-159.4,654.9z"/>
				<circle class="st2" cx="90.6" cy="564.2" r="13.8"/>
				<circle class="st2" cx="-18.7" cy="593.8" r="13.8"/>
				<path class="st3" d="M122.8,644.7c5.4,5.4,5.4,14.2,0,19.6s-14.2,5.4-19.6,0c-5.4-5.4-5.4-14.2,0-19.6S117.4,639.3,122.8,644.7z
					"/>
				<path class="st3" d="M163.3,685.2c5.4,5.4,5.4,14.2,0,19.6s-14.2,5.4-19.6,0c-5.4-5.4-5.4-14.2,0-19.6S157.9,679.8,163.3,685.2z
					"/>
				<path class="st3" d="M218.1,691.7c5.5-5.4,14.3-5.4,19.6,0c5.4,5.4,5.4,14.2,0,19.6s-14.2,5.4-19.6,0
					C212.7,705.9,212.7,697.1,218.1,691.7C218.2,691.7,218.2,691.7,218.1,691.7z"/>
				<path class="st2" d="M91.6,928.5L91.6,928.5c5.4,5.4,5.4,14.2,0,19.6s-14.2,5.4-19.6,0c-5.4-5.4-5.4-14.2,0-19.6
					S86.2,923.1,91.6,928.5z"/>
				<circle class="st2" cx="260.2" cy="872.7" r="13.8"/>
				<path class="st3" d="M408.1,862.1L408.1,862.1c5.4,5.4,5.4,14.2,0,19.6s-14.2,5.4-19.6,0c-5.4-5.4-5.4-14.2,0-19.6
					C393.9,856.7,402.6,856.7,408.1,862.1z"/>
				
					<ellipse transform="matrix(0.9239 -0.3827 0.3827 0.9239 -352.0522 251.9128)" class="st3" cx="457.2" cy="1010.9" rx="13.8" ry="13.8"/>
				<circle class="st2" cx="593.2" cy="1066.8" r="13.8"/>
				<circle class="st2" cx="551.5" cy="1199.2" r="13.8"/>
				<circle class="st3" cx="659.4" cy="1133" r="13.8"/>
				<path class="st3" d="M764,1256.5c5.4,5.4,5.4,14.2,0,19.6c-5.4,5.4-14.2,5.4-19.6,0s-5.4-14.2,0-19.6
					C749.8,1251.1,758.5,1251.1,764,1256.5z"/>
				<circle class="st3" cx="759.1" cy="1329.9" r="13.8"/>
				<circle class="st2" cx="913.1" cy="1386.7" r="13.8"/>
				<circle class="st2" cx="983" cy="1456.6" r="13.8"/>
				<circle class="st3" cx="1028.3" cy="1501.9" r="13.8"/>
				<path class="st3" d="M860,1577.2c5.4,5.4,5.4,14.2,0,19.6c-5.4,5.4-14.2,5.4-19.6,0s-5.4-14.2,0-19.6
					C845.8,1571.8,854.5,1571.8,860,1577.2z"/>
				<path class="st3" d="M1072.5,1546.1c5.4-5.4,14.2-5.4,19.6,0s5.4,14.2,0,19.6s-14.2,5.4-19.6,0S1067.1,1551.5,1072.5,1546.1
					L1072.5,1546.1z"/>
				<circle class="st3" cx="950.3" cy="1714.8" r="13.8"/>
				<circle class="st2" cx="-303.9" cy="169.8" r="13.8"/>
				
					<rect x="-405.4" y="282.5" transform="matrix(0.7071 -0.7071 0.7071 0.7071 -317.1418 -178.1916)" class="st3" width="63.5" height="22.4"/>
				
					<rect x="-470.2" y="494.1" transform="matrix(0.7071 -0.7071 0.7071 0.7071 -493.0036 -179.6722)" class="st3" width="13.6" height="22.4"/>
				
					<rect x="-482.6" y="508.9" transform="matrix(0.7071 -0.7071 0.7071 0.7071 -507.8244 -185.8236)" class="st3" width="8.8" height="22.4"/>
				
					<rect x="-494.9" y="519.7" transform="matrix(0.7071 -0.7071 0.7071 0.7071 -518.6301 -190.2514)" class="st3" width="11.8" height="22.4"/>
				
					<rect x="-546.8" y="552.6" transform="matrix(0.7071 -0.7071 0.7071 0.7071 -551.5205 -203.8844)" class="st3" width="49.8" height="22.4"/>
				
					<rect x="-263.8" y="443.4" transform="matrix(0.7071 -0.7071 0.7071 0.7071 -395.5901 -45.8988)" class="st3" width="21.2" height="22.4"/>
				
					<rect x="-275.8" y="459.5" transform="matrix(0.7071 -0.7071 0.7071 0.7071 -411.7718 -52.6188)" class="st3" width="12.8" height="22.4"/>
				
					<rect x="-293.7" y="479.9" transform="matrix(0.7071 -0.7071 0.7071 0.7071 -432.162 -61.0698)" class="st3" width="7.9" height="22.4"/>
				
					<rect x="-332.8" y="501.9" transform="matrix(0.7071 -0.7071 0.7071 0.7071 -454.0971 -70.1151)" class="st3" width="42.2" height="22.4"/>
				
					<rect x="-243.3" y="612.5" transform="matrix(0.7071 -0.7071 0.7071 0.7071 -510.1792 15.6826)" class="st3" width="14.2" height="22.4"/>
				
					<rect x="-257.1" y="628.6" transform="matrix(0.7071 -0.7071 0.7071 0.7071 -526.3049 9.0399)" class="st3" width="9.8" height="22.4"/>
				
					<rect x="-274.3" y="641.8" transform="matrix(0.7071 -0.7071 0.7071 0.7071 -539.531 3.5514)" class="st3" width="17.7" height="22.4"/>
				
					<rect x="-299" y="667.6" transform="matrix(0.7071 -0.7071 0.7071 0.7071 -565.2416 -7.0632)" class="st3" width="15.7" height="22.4"/>
				
					<rect x="-314.3" y="683.2" transform="matrix(0.7071 -0.7071 0.7071 0.7071 -580.8641 -13.6031)" class="st3" width="14.8" height="22.4"/>
				
					<rect x="30.5" y="624.8" transform="matrix(0.7071 -0.7071 0.7071 0.7071 -438.4435 213.4534)" class="st3" width="15.9" height="22.4"/>
				
					<rect x="6.3" y="649.5" transform="matrix(0.7071 -0.7071 0.7071 0.7071 -463.1957 203.153)" class="st3" width="14.7" height="22.4"/>
				
					<rect x="-44.7" y="681.2" transform="matrix(0.7071 -0.7071 0.7071 0.7071 -494.8756 190.033)" class="st3" width="53.4" height="22.4"/>
				
					<rect x="20.9" y="637.4" transform="matrix(0.7071 -0.7071 0.7071 0.7071 -451.0485 208.2166)" class="st3" width="9.8" height="22.4"/>
				
					<rect x="23.3" y="772.7" transform="matrix(0.7071 -0.7071 0.7071 0.7071 -545.7839 250.2055)" class="st3" width="11.7" height="22.4"/>
				
					<rect x="8.7" y="787.3" transform="matrix(0.7071 -0.7071 0.7071 0.7071 -560.3262 244.1864)" class="st3" width="11.8" height="22.4"/>
				
					<rect x="-6.8" y="804.3" transform="matrix(0.7071 -0.7071 0.7071 0.7071 -577.3334 237.1561)" class="st3" width="8.8" height="22.4"/>
				
					<rect x="-24.1" y="816.7" transform="matrix(0.7071 -0.7071 0.7071 0.7071 -589.7405 231.9808)" class="st3" width="18.6" height="22.4"/>
				
					<rect x="-51.5" y="840.3" transform="matrix(0.7071 -0.7071 0.7071 0.7071 -613.3315 222.2592)" class="st3" width="26.2" height="22.4"/>
				
					<rect x="-2.1" y="966.8" transform="matrix(0.7071 -0.7071 0.7071 0.7071 -689.6153 291.1368)" class="st3" width="17.5" height="22.4"/>
				
					<rect x="-19.9" y="983.1" transform="matrix(0.7071 -0.7071 0.7071 0.7071 -705.8922 284.4668)" class="st3" width="20.6" height="22.4"/>
				
					<rect x="-55.3" y="1013.6" transform="matrix(0.7071 -0.7071 0.7071 0.7071 -736.3892 271.7794)" class="st3" width="30.4" height="22.4"/>
				
					<rect x="-70.5" y="1035.8" transform="matrix(0.7071 -0.7071 0.7071 0.7071 -758.5691 262.6246)" class="st3" width="16.4" height="22.4"/>
				
					<rect x="91.1" y="1049.4" transform="matrix(0.7071 -0.7071 0.7071 0.7071 -720.9034 380.7046)" class="st3" width="16" height="22.4"/>
				
					<rect x="69.7" y="1070.9" transform="matrix(0.7071 -0.7071 0.7071 0.7071 -742.4663 371.7776)" class="st3" width="15.7" height="22.4"/>
				
					<rect x="41.2" y="1092.5" transform="matrix(0.7071 -0.7071 0.7071 0.7071 -764.0582 362.8607)" class="st3" width="29.5" height="22.4"/>
				
					<rect x="21" y="1118" transform="matrix(0.7071 -0.7071 0.7071 0.7071 -789.4984 352.2912)" class="st3" width="19" height="22.4"/>
				
					<rect x="213" y="840.8" transform="matrix(0.7071 -0.7071 0.7071 0.7071 -536.7593 408.1406)" class="st3" width="22.5" height="22.4"/>
				
					<rect x="190.5" y="862" transform="matrix(0.7071 -0.7071 0.7071 0.7071 -557.8854 399.4518)" class="st3" width="25.5" height="22.4"/>
				
					<rect x="170.9" y="885.8" transform="matrix(0.7071 -0.7071 0.7071 0.7071 -581.7965 389.4764)" class="st3" width="16.7" height="22.4"/>
				
					<rect x="163.3" y="898.5" transform="matrix(0.707 -0.7072 0.7072 0.707 -594.4708 384.4324)" class="st3" width="6.9" height="22.4"/>
				
					<rect x="149.3" y="908.7" transform="matrix(0.7071 -0.7071 0.7071 0.7071 -604.6246 380.0572)" class="st3" width="14.4" height="22.4"/>
				
					<rect x="270.8" y="940.5" transform="matrix(0.7071 -0.7071 0.7071 0.7071 -592.6405 472.6927)" class="st3" width="6.9" height="22.4"/>
				
					<rect x="252.5" y="953.5" transform="matrix(0.7071 -0.7071 0.7071 0.7071 -605.6027 467.3336)" class="st3" width="17.7" height="22.4"/>
				
					<rect x="230.6" y="971.4" transform="matrix(0.7071 -0.7071 0.7071 0.7071 -623.5609 459.8822)" class="st3" width="25.5" height="22.4"/>
				
					<rect x="203.6" y="1003.5" transform="matrix(0.7071 -0.7071 0.7071 0.7071 -655.5545 446.7018)" class="st3" width="15.7" height="22.4"/>
				
					<rect x="194.6" y="1016.5" transform="matrix(0.7071 -0.7071 0.7071 0.7071 -668.5737 441.2327)" class="st3" width="7.4" height="22.4"/>
				
					<rect x="297.9" y="1112.9" transform="matrix(0.7071 -0.7071 0.7071 0.7071 -706.1468 543.3746)" class="st3" width="9.8" height="22.4"/>
				
					<rect x="273" y="1131" transform="matrix(0.7071 -0.7071 0.7071 0.7071 -724.228 535.9559)" class="st3" width="23.6" height="22.4"/>
				
					<rect x="222.6" y="1183.6" transform="matrix(0.7071 -0.7071 0.7071 0.7071 -776.8472 514.1814)" class="st3" width="19.2" height="22.4"/>
				
					<rect x="259.8" y="1148.7" transform="matrix(0.7071 -0.7071 0.7071 0.7071 -741.959 528.6506)" class="st3" width="14.7" height="22.4"/>
				
					<rect x="245.2" y="1163.3" transform="matrix(0.7071 -0.7071 0.7071 0.7071 -756.5511 522.5648)" class="st3" width="14.7" height="22.4"/>
				
					<rect x="122.4" y="1150.9" transform="matrix(0.7071 -0.7071 0.7071 0.7071 -784.3636 430.6526)" class="st3" width="10.6" height="22.4"/>
				
					<rect x="100.7" y="1165.5" transform="matrix(0.7071 -0.7071 0.7071 0.7071 -798.9354 424.5522)" class="st3" width="24.6" height="22.4"/>
				
					<rect x="84.7" y="1185.9" transform="matrix(0.7071 -0.7071 0.7071 0.7071 -819.3848 416.0795)" class="st3" width="15.7" height="22.4"/>
				
					<rect x="70.7" y="1201.1" transform="matrix(0.7071 -0.7071 0.7071 0.7071 -834.553 409.8355)" class="st3" width="13.4" height="22.4"/>
				
					<rect x="491.3" y="1135" transform="matrix(0.707 -0.7072 0.7072 0.707 -665.7822 685.391)" class="st3" width="5.9" height="22.4"/>
				
					<rect x="479.7" y="1145" transform="matrix(0.7071 -0.7071 0.7071 0.7071 -675.7917 680.9922)" class="st3" width="8.8" height="22.4"/>
				
					<rect x="462.4" y="1157.5" transform="matrix(0.7071 -0.7071 0.7071 0.7071 -688.2419 675.8603)" class="st3" width="18.6" height="22.4"/>
				
					<rect x="442.3" y="1180.4" transform="matrix(0.7071 -0.7071 0.7071 0.7071 -711.1351 666.2762)" class="st3" width="12.8" height="22.4"/>
				
					<rect x="437" y="1189.6" transform="matrix(0.7071 -0.7071 0.7071 0.7071 -720.3071 662.5788)" class="st3" width="5.3" height="22.4"/>
				
					<rect x="336.1" y="1308.2" transform="matrix(0.7071 -0.7071 0.7071 0.7071 -833.2023 627.2849)" class="st3" width="9" height="22.4"/>
				
					<rect x="283.1" y="1358.7" transform="matrix(0.7071 -0.7071 0.7071 0.7071 -883.7017 606.3836)" class="st3" width="14" height="22.4"/>
				
					<rect x="301" y="1337.5" transform="matrix(0.7071 -0.7071 0.7071 0.7071 -862.4587 615.1449)" class="st3" width="20.6" height="22.4"/>
				
					<rect x="318.1" y="1321.4" transform="matrix(0.7071 -0.7071 0.7071 0.7071 -846.4034 621.7904)" class="st3" width="18.6" height="22.4"/>
				
					<rect x="485" y="1403.9" transform="matrix(0.7071 -0.7071 0.7071 0.7071 -857.0726 761.0716)" class="st3" width="10.4" height="22.4"/>
				
					<rect x="465.8" y="1419.7" transform="matrix(0.7071 -0.7071 0.7071 0.7071 -872.943 754.4237)" class="st3" width="16.7" height="22.4"/>
				
					<rect x="447.2" y="1436.4" transform="matrix(0.7071 -0.7071 0.7071 0.7071 -889.5857 747.4979)" class="st3" width="20.6" height="22.4"/>
				
					<rect x="433.6" y="1455" transform="matrix(0.7071 -0.7071 0.7071 0.7071 -908.2073 739.7723)" class="st3" width="10.6" height="22.4"/>
				
					<rect x="609.1" y="1530.4" transform="matrix(0.707 -0.7072 0.7072 0.707 -910.9155 884.5704)" class="st3" width="6" height="22.4"/>
				
					<rect x="587" y="1545.6" transform="matrix(0.7071 -0.7071 0.7071 0.7071 -926.0433 877.9489)" class="st3" width="19.6" height="22.4"/>
				
					<rect x="566" y="1564.1" transform="matrix(0.7071 -0.7071 0.7071 0.7071 -944.4991 870.3419)" class="st3" width="24.6" height="22.4"/>
				
					<rect x="554.5" y="1584.4" transform="matrix(0.707 -0.7072 0.7072 0.707 -964.9023 862.1949)" class="st3" width="7.2" height="22.4"/>
				
					<rect x="749" y="1569.2" transform="matrix(0.7071 -0.7071 0.7071 0.7071 -896.432 996.6287)" class="st3" width="11.6" height="22.4"/>
				
					<rect x="685.5" y="1622.3" transform="matrix(0.7071 -0.7071 0.7071 0.7071 -949.5081 974.6113)" class="st3" width="32.4" height="22.4"/>
				
					<rect x="659.6" y="1654.5" transform="matrix(0.7071 -0.7071 0.7071 0.7071 -981.7613 961.2444)" class="st3" width="19.7" height="22.4"/>
				
					<rect x="733.9" y="1582.4" transform="matrix(0.7071 -0.7071 0.7071 0.7071 -909.5641 991.2402)" class="st3" width="15.7" height="22.4"/>
				
					<rect x="720.8" y="1595.9" transform="matrix(0.7071 -0.7071 0.7071 0.7071 -923.1248 985.5814)" class="st3" width="14.7" height="22.4"/>
				
					<rect x="879.1" y="1614.3" transform="matrix(0.7071 -0.7071 0.7071 0.7071 -889.0195 1104.7053)" class="st3" width="19.8" height="22.4"/>
				
					<rect x="859.2" y="1632.7" transform="matrix(0.7071 -0.7071 0.7071 0.7071 -907.4287 1097.052)" class="st3" width="22.6" height="22.4"/>
				
					<rect x="828.7" y="1660.8" transform="matrix(0.7071 -0.7071 0.7071 0.7071 -935.5802 1085.4055)" class="st3" width="27.5" height="22.4"/>
				
					<rect x="810.4" y="1683.1" transform="matrix(0.7071 -0.7071 0.7071 0.7071 -957.8026 1076.2341)" class="st3" width="19.6" height="22.4"/>
				
					<rect x="797.3" y="1698.2" transform="matrix(0.7071 -0.7071 0.7071 0.7071 -972.9435 1069.8888)" class="st3" width="15.4" height="22.4"/>
				
					<rect x="661.2" y="1376.4" transform="matrix(0.7071 -0.7071 0.7071 0.7071 -786.1661 877.2947)" class="st3" width="9.4" height="22.4"/>
				
					<rect x="608.6" y="1426.9" transform="matrix(0.7071 -0.7071 0.7071 0.7071 -836.64 856.3848)" class="st3" width="13.7" height="22.4"/>
				
					<rect x="623.2" y="1412.3" transform="matrix(0.7071 -0.7071 0.7071 0.7071 -822.0574 862.4528)" class="st3" width="13.7" height="22.4"/>
				
					<rect x="641.8" y="1390.8" transform="matrix(0.7071 -0.7071 0.7071 0.7071 -800.4962 871.3502)" class="st3" width="19.6" height="22.4"/>
				
					<rect x="1000.3" y="1573.8" transform="matrix(0.7071 -0.7071 0.7071 0.7071 -825.5052 1177.1028)" class="st3" width="15.7" height="22.4"/>
				
					<rect x="968.5" y="1605.6" transform="matrix(0.7071 -0.7071 0.7071 0.7071 -857.3453 1163.8621)" class="st3" width="15.5" height="22.4"/>
				
					<rect x="982.8" y="1593.3" transform="matrix(0.7071 -0.7071 0.7071 0.7071 -844.9573 1169.0778)" class="st3" width="11.8" height="22.4"/>
				
					<rect x="1015.5" y="1558.4" transform="matrix(0.7071 -0.7071 0.7071 0.7071 -810.0437 1183.6047)" class="st3" width="16.4" height="22.4"/>
				
					<rect x="819.9" y="1779.4" transform="matrix(0.7071 -0.7071 0.7071 0.7071 -1023.6786 1109.8331)" class="st3" width="15.9" height="22.4"/>
				
					<rect x="772.2" y="1826.1" transform="matrix(0.7071 -0.7071 0.7071 0.7071 -1070.381 1090.4825)" class="st3" width="17.9" height="22.4"/>
				
					<rect x="806.4" y="1794.1" transform="matrix(0.7071 -0.7071 0.7071 0.7071 -1038.3868 1103.7955)" class="st3" width="13.7" height="22.4"/>
				
					<rect x="796.2" y="1805.2" transform="matrix(0.7071 -0.7071 0.7071 0.7071 -1049.4563 1099.2128)" class="st3" width="11.8" height="22.4"/>
				
					<rect x="923.3" y="1758" transform="matrix(0.7071 -0.7071 0.7071 0.7071 -978.3427 1176.4719)" class="st3" width="15.3" height="22.4"/>
				
					<rect x="914.6" y="1770" transform="matrix(0.7071 -0.7071 0.7071 0.7071 -990.3083 1171.5023)" class="st3" width="8.8" height="22.4"/>
				
					<rect x="905.7" y="1779.8" transform="matrix(0.7071 -0.7071 0.7071 0.7071 -1000.1129 1167.4601)" class="st3" width="6.9" height="22.4"/>
				
					<rect x="880.7" y="1799.9" transform="matrix(0.7071 -0.7071 0.7071 0.7071 -1020.2561 1159.1531)" class="st3" width="16.7" height="22.4"/>
				
					<rect x="876.9" y="1809.3" transform="matrix(0.7071 -0.7071 0.7071 0.7071 -1029.6049 1155.3156)" class="st3" width="5.8" height="22.4"/>
				
					<rect x="548.3" y="1263.5" transform="matrix(0.7071 -0.7071 0.7071 0.7071 -739.3586 764.3918)" class="st3" width="9.4" height="22.4"/>
				
					<rect x="530.6" y="1277.5" transform="matrix(0.7071 -0.7071 0.7071 0.7071 -753.4093 758.545)" class="st3" width="16.7" height="22.4"/>
				
					<rect x="509.6" y="1300.5" transform="matrix(0.7071 -0.7071 0.7071 0.7071 -776.3486 749.0534)" class="st3" width="12.8" height="22.4"/>
				
					<rect x="496" y="1314.6" transform="matrix(0.7071 -0.7071 0.7071 0.7071 -790.5209 743.1938)" class="st3" width="11.7" height="22.4"/>
				
					<rect x="-410.1" y="314.4" transform="matrix(0.7071 -0.7071 0.7071 0.7071 -348.9986 -191.3575)" class="st3" width="9.2" height="22.4"/>
				
					<rect x="-421.4" y="325.6" transform="matrix(0.7071 -0.7071 0.7071 0.7071 -360.2104 -196.0431)" class="st3" width="9.2" height="22.4"/>
				
					<rect x="-445.6" y="349.9" transform="matrix(0.7071 -0.7071 0.7071 0.7071 -384.5206 -206.0861)" class="st3" width="9.2" height="22.4"/>
				<polyline class="st2" points="-1166.4,-71.2 -1027.6,-210 -893.8,-183.2 -735.5,-341.4 				"/>
				<line class="st2" x1="-963.1" y1="-240.4" x2="-789.1" y2="-414.5"/>
				<polyline class="st2" points="-1002.1,-50.5 -1021.1,-136.2 -875.5,-281.8 				"/>
				<polyline class="st2" points="-1062.6,-26.6 -1081.6,-112.3 -1060.5,-133.3 				"/>
				<polyline class="st2" points="-1038.5,56.7 -919.3,-62.6 -862.9,-38.1 -801.6,-99.4 -818.8,-163.1 -697.4,-284.4 				"/>
				<polyline class="st2" points="-835.1,260.1 -763.2,188.3 -838.4,8.5 -670.4,-159.4 				"/>
				<polyline class="st2" points="-538.5,-163.9 -658.2,-44.2 -649.8,28.3 -707.4,85.9 -869,39.1 -928.1,98.2 -884.1,211.1 				"/>
				<polyline class="st2" points="-757.5,324.8 -649.6,216.9 -663.1,161.7 -583.4,82.1 -599.4,24.4 -503.8,-71.2 				"/>
				<polyline class="st2" points="-345,41.8 -475.5,28.1 -581.4,133.9 				"/>
				<polyline class="st2" points="-704.8,377.5 -627.3,299.9 -635.5,267.8 -609.8,242 -565,257.3 -492.9,185.2 -502.7,135 
					-450.4,82.6 				"/>
				<polyline class="st2" points="-614.1,468.2 -508.6,362.8 -525.8,272.1 -465.9,212.2 -398.3,223 -308.8,133.5 				"/>
				<polyline class="st2" points="-268.4,174 -321.5,227.1 -300.3,303.9 -440.6,444.3 -611.6,357.9 -668,414.2 				"/>
				<polyline class="st2" points="-578.5,503.7 -418.5,343.8 -313.8,390.9 -238.8,315.9 -252.4,238.9 -194,180.5 				"/>
				<polyline class="st2" points="-462.1,620.2 -384.5,542.6 -403.8,481 -349.9,427.1 				"/>
				<polyline class="st2" points="-299,783.2 -233.7,717.9 -291.3,481.3 -171.5,361.5 				"/>
				<polyline class="st2" points="-23.6,350.9 -99.2,426.5 -85.4,508.3 -187.5,610.4 -306.4,589.5 -399.6,682.7 				"/>
				<polyline class="st2" points="-13.4,1068.8 -28.1,637.3 35.6,573.6 112.8,604.2 161.5,555.6 				"/>
				<polyline class="st2" points="237.4,612 246.4,715.8 100,862.3 1.3,848.2 -116.4,965.8 				"/>
				<polyline class="st2" points="-26.9,1038.2 38,1039.4 96.3,981.1 78.5,932.7 198.6,812.6 248.9,828.6 332.2,745.2 				"/>
				<polyline class="st2" points="481.4,875.5 344.5,1012.4 198,960.3 104.2,1054.1 114.1,1112.9 72.4,1154.6 				"/>
				<polyline class="st2" points="221.9,1287 174.7,1082.9 362.3,895.4 337.2,808.9 				"/>
				<polyline class="st2" points="551.3,945.4 502.6,994 436,984.6 380,1040.6 404.6,1119.1 311.4,1212.2 126.3,1191.4 				"/>
				<polyline class="st2" points="428.3,1065.9 511.2,1076.2 606.4,980.9 				"/>
				<polyline class="st2" points="313.9,1378.9 300.4,1296.8 373.9,1223.3 413.4,1235.3 505.5,1143.2 590.9,1163.2 641.1,1112.9 
					626.4,1068.8 660.3,1034.9 				"/>
				<polyline class="st2" points="418.7,1405.4 405.8,1316.4 528.4,1193.8 				"/>
				<circle class="st3" cx="-1062" cy="-133.3" r="13.8"/>
				<path class="st3" d="M-798.8-424.3c5.4-5.4,14.1-5.4,19.6,0c5.4,5.4,5.4,14.2,0,19.6l0,0c-5.4,5.4-14.2,5.4-19.6,0
					S-804.2-418.9-798.8-424.3L-798.8-424.3z"/>
				<circle class="st3" cx="-963.1" cy="-240.4" r="13.8"/>
				<path class="st3" d="M-865.7-291.6c5.4,5.4,5.4,14.2,0,19.6c-5.4,5.4-14.2,5.4-19.6,0s-5.4-14.2,0-19.6
					C-879.8-297-871.1-297-865.7-291.6z"/>
				
					<ellipse transform="matrix(9.802528e-03 -1 1 9.802528e-03 -941.7794 -1052.0569)" class="st3" cx="-1002.1" cy="-50.5" rx="13.8" ry="13.8"/>
				<circle class="st3" cx="-697.4" cy="-284.4" r="13.8"/>
				<circle class="st2" cx="-660.6" cy="-169.2" r="13.8"/>
				<path class="st3" d="M-528.6-173.7L-528.6-173.7c5.4,5.4,5.4,14.2,0,19.6c-0.1,0.1-0.1,0.1-0.1,0.1c-5.4,5.3-14.1,5.3-19.5-0.1
					l0,0c-5.4-5.4-5.4-14.2,0-19.6C-542.8-179.1-534.1-179.1-528.6-173.7z"/>
				<path class="st3" d="M-494-81L-494-81c5.4,5.4,5.4,14.2,0,19.6s-14.2,5.4-19.6,0s-5.4-14.2,0-19.6
					C-508.2-86.4-499.4-86.4-494-81z"/>
				<circle class="st2" cx="-591.1" cy="143.7" r="13.8"/>
				<circle class="st2" cx="-331.3" cy="43.2" r="13.8"/>
				
					<ellipse transform="matrix(0.9999 -1.020250e-02 1.020250e-02 0.9999 -0.7667 -4.4914)" class="st2" cx="-440.6" cy="72.9" rx="13.8" ry="13.8"/>
				<path class="st3" d="M-299,123.7c5.4,5.4,5.4,14.2,0,19.6s-14.2,5.4-19.6,0c-5.4-5.4-5.4-14.2,0-19.6S-304.5,118.3-299,123.7z"
					/>
				<circle class="st3" cx="-268.4" cy="174" r="13.8"/>
				<circle class="st3" cx="-194" cy="180.5" r="13.8"/>
				<path class="st2" d="M-349.9,407.5c5.5-5.4,14.2-5.4,19.6,0l0,0c5.4,5.4,5.4,14.2,0,19.6s-14.2,5.4-19.6,0
					S-355.3,412.9-349.9,407.5C-349.9,407.5-349.8,407.5-349.9,407.5z"/>
				<circle class="st2" cx="-161.8" cy="351.7" r="13.8"/>
				<path class="st3" d="M-13.8,341.1L-13.8,341.1c5.4,5.4,5.4,14.2,0,19.6s-14.2,5.4-19.6,0s-5.4-14.2,0-19.6
					S-19.3,335.7-13.8,341.1z"/>
				<circle class="st3" cx="40.5" cy="482.9" r="13.8"/>
				<circle class="st2" cx="171.3" cy="545.8" r="13.8"/>
				<circle class="st3" cx="237.4" cy="612" r="13.8"/>
				<circle class="st3" cx="332.2" cy="745.2" r="13.8"/>
				<circle class="st3" cx="337.2" cy="808.9" r="13.8"/>
				<circle class="st2" cx="491.2" cy="865.7" r="13.8"/>
				<circle class="st2" cx="561.1" cy="935.6" r="13.8"/>
				<circle class="st3" cx="606.4" cy="980.9" r="13.8"/>
				<circle class="st3" cx="442.1" cy="1065.9" r="13.8"/>
				<path class="st3" d="M650.6,1025.1c5.4-5.4,14.1-5.4,19.6,0c5.4,5.4,5.4,14.2,0,19.6c-5.4,5.4-14.2,5.4-19.6,0
					S645.2,1030.5,650.6,1025.1L650.6,1025.1z"/>
				<circle class="st3" cx="528.4" cy="1193.8" r="13.8"/>
				<circle class="st2" cx="-725.8" cy="-351.2" r="13.8"/>
				
					<rect x="-827.3" y="-238.4" transform="matrix(0.7071 -0.7071 0.7071 0.7071 -72.3399 -629.0984)" class="st3" width="63.5" height="22.4"/>
				
					<rect x="-892.1" y="-26.9" transform="matrix(0.7071 -0.7071 0.7071 0.7071 -248.1742 -630.593)" class="st3" width="13.6" height="22.4"/>
				
					<rect x="-904.5" y="-12.1" transform="matrix(0.7071 -0.7071 0.7071 0.7071 -262.9948 -636.7579)" class="st3" width="8.8" height="22.4"/>
				
					<rect x="-916.8" y="-1.3" transform="matrix(0.7071 -0.7071 0.7071 0.7071 -273.8006 -641.1859)" class="st3" width="11.8" height="22.4"/>
				
					<rect x="-968.7" y="31.6" transform="matrix(0.7071 -0.7071 0.7071 0.7071 -306.6772 -654.819)" class="st3" width="49.8" height="22.4"/>
				
					<rect x="-685.7" y="-77.6" transform="matrix(0.7071 -0.7071 0.7071 0.7071 -150.7744 -496.8195)" class="st3" width="21.2" height="22.4"/>
				
					<rect x="-697.7" y="-61.4" transform="matrix(0.7071 -0.7071 0.7071 0.7071 -166.9931 -503.5025)" class="st3" width="12.8" height="22.4"/>
				
					<rect x="-715.6" y="-41.1" transform="matrix(0.7071 -0.7071 0.7071 0.7071 -187.3148 -511.981)" class="st3" width="7.9" height="22.4"/>
				
					<rect x="-754.7" y="-19.1" transform="matrix(0.7071 -0.7071 0.7071 0.7071 -209.2814 -521.022)" class="st3" width="42.2" height="22.4"/>
				
					<rect x="-665.1" y="91.5" transform="matrix(0.7071 -0.7071 0.7071 0.7071 -265.3419 -435.199)" class="st3" width="14.2" height="22.4"/>
				
					<rect x="-679.1" y="107.7" transform="matrix(0.7071 -0.7071 0.7071 0.7071 -281.5501 -441.9004)" class="st3" width="9.8" height="22.4"/>
				
					<rect x="-696.2" y="120.9" transform="matrix(0.7071 -0.7071 0.7071 0.7071 -294.7152 -447.3693)" class="st3" width="17.7" height="22.4"/>
				
					<rect x="-721" y="146.7" transform="matrix(0.7071 -0.7071 0.7071 0.7071 -320.4967 -458.0131)" class="st3" width="15.7" height="22.4"/>
				
					<rect x="-736.2" y="162.2" transform="matrix(0.7071 -0.7071 0.7071 0.7071 -336.0345 -464.5376)" class="st3" width="14.8" height="22.4"/>
				
					<rect x="-391.4" y="103.7" transform="matrix(0.7071 -0.7071 0.7071 0.7071 -193.5866 -237.4948)" class="st3" width="15.9" height="22.4"/>
				
					<rect x="-415.5" y="128.5" transform="matrix(0.7071 -0.7071 0.7071 0.7071 -218.2973 -247.709)" class="st3" width="14.7" height="22.4"/>
				
					<rect x="-466.6" y="160.2" transform="matrix(0.7071 -0.7071 0.7071 0.7071 -250.0461 -260.8878)" class="st3" width="53.4" height="22.4"/>
				
					<rect x="-401" y="116.4" transform="matrix(0.7071 -0.7071 0.7071 0.7071 -206.2327 -242.7179)" class="st3" width="9.8" height="22.4"/>
				
					<rect x="-398.6" y="251.7" transform="matrix(0.7071 -0.7071 0.7071 0.7071 -300.9448 -200.7193)" class="st3" width="11.7" height="22.4"/>
				
					<rect x="-413.2" y="266.3" transform="matrix(0.7071 -0.7071 0.7071 0.7071 -315.4968 -206.7207)" class="st3" width="11.8" height="22.4"/>
				
					<rect x="-428.7" y="283.3" transform="matrix(0.7071 -0.7071 0.7071 0.7071 -332.508 -213.7551)" class="st3" width="8.8" height="22.4"/>
				
					<rect x="-446" y="295.7" transform="matrix(0.7071 -0.7071 0.7071 0.7071 -344.9111 -218.9401)" class="st3" width="18.6" height="22.4"/>
				
					<rect x="-473.4" y="319.3" transform="matrix(0.7071 -0.7071 0.7071 0.7071 -368.5158 -228.6753)" class="st3" width="26.2" height="22.4"/>
				
					<rect x="-424" y="445.8" transform="matrix(0.7071 -0.7071 0.7071 0.7071 -444.7857 -159.7644)" class="st3" width="17.5" height="22.4"/>
				
					<rect x="-441.9" y="462.2" transform="matrix(0.7071 -0.7071 0.7071 0.7071 -461.1178 -166.5265)" class="st3" width="20.6" height="22.4"/>
				
					<rect x="-477.3" y="492.7" transform="matrix(0.7071 -0.7071 0.7071 0.7071 -491.6443 -179.1432)" class="st3" width="30.4" height="22.4"/>
				
					<rect x="-492.4" y="514.8" transform="matrix(0.7071 -0.7071 0.7071 0.7071 -513.7534 -188.2961)" class="st3" width="16.4" height="22.4"/>
				
					<rect x="-330.8" y="528.4" transform="matrix(0.7071 -0.7071 0.7071 0.7071 -476.0878 -70.1888)" class="st3" width="16" height="22.4"/>
				
					<rect x="-352.2" y="549.9" transform="matrix(0.7071 -0.7071 0.7071 0.7071 -497.6369 -79.1431)" class="st3" width="15.7" height="22.4"/>
				
					<rect x="-380.7" y="571.5" transform="matrix(0.7071 -0.7071 0.7071 0.7071 -519.2288 -88.0599)" class="st3" width="29.5" height="22.4"/>
				
					<rect x="-400.9" y="597" transform="matrix(0.7071 -0.7071 0.7071 0.7071 -544.673 -98.6335)" class="st3" width="19" height="22.4"/>
				
					<rect x="-208.9" y="319.8" transform="matrix(0.7071 -0.7071 0.7071 0.7071 -291.9298 -42.7801)" class="st3" width="22.5" height="22.4"/>
				
					<rect x="-231.4" y="341" transform="matrix(0.7071 -0.7071 0.7071 0.7071 -313.0698 -51.4827)" class="st3" width="25.5" height="22.4"/>
				
					<rect x="-251" y="364.8" transform="matrix(0.7071 -0.7071 0.7071 0.7071 -336.9533 -61.4445)" class="st3" width="16.7" height="22.4"/>
				
					<rect x="-258.6" y="377.4" transform="matrix(0.7071 -0.7071 0.7071 0.7071 -349.5439 -66.6282)" class="st3" width="6.9" height="22.4"/>
				
					<rect x="-272.7" y="387.7" transform="matrix(0.7071 -0.7071 0.7071 0.7071 -359.8186 -70.8676)" class="st3" width="14.4" height="22.4"/>
				
					<rect x="-151.1" y="419.5" transform="matrix(0.7071 -0.7071 0.7071 0.7071 -347.8247 21.7719)" class="st3" width="6.9" height="22.4"/>
				
					<rect x="-169.4" y="432.5" transform="matrix(0.7071 -0.7071 0.7071 0.7071 -360.7868 16.3991)" class="st3" width="17.7" height="22.4"/>
				
					<rect x="-191.3" y="450.5" transform="matrix(0.7071 -0.7071 0.7071 0.7071 -378.7452 8.9751)" class="st3" width="25.5" height="22.4"/>
				
					<rect x="-218.4" y="482.4" transform="matrix(0.7071 -0.7071 0.7071 0.7071 -410.7232 -4.2897)" class="st3" width="15.7" height="22.4"/>
				
					<rect x="-227.3" y="495.6" transform="matrix(0.7071 -0.7071 0.7071 0.7071 -423.8561 -9.6624)" class="st3" width="7.4" height="22.4"/>
				
					<rect x="-123.9" y="591.9" transform="matrix(0.7071 -0.7071 0.7071 0.7071 -461.3191 92.5246)" class="st3" width="9.8" height="22.4"/>
				
					<rect x="-148.9" y="610.1" transform="matrix(0.7071 -0.7071 0.7071 0.7071 -479.4732 85.0155)" class="st3" width="23.6" height="22.4"/>
				
					<rect x="-199.2" y="662.6" transform="matrix(0.7071 -0.7071 0.7071 0.7071 -532.0178 63.2607)" class="st3" width="19.2" height="22.4"/>
				
					<rect x="-162.1" y="627.8" transform="matrix(0.7071 -0.7071 0.7071 0.7071 -497.1433 77.708)" class="st3" width="14.7" height="22.4"/>
				
					<rect x="-176.7" y="642.4" transform="matrix(0.7071 -0.7071 0.7071 0.7071 -511.7354 71.6714)" class="st3" width="14.7" height="22.4"/>
				
					<rect x="-299.7" y="630" transform="matrix(0.7071 -0.7071 0.7071 0.7071 -539.5894 -20.3682)" class="st3" width="10.6" height="22.4"/>
				
					<rect x="-321.2" y="644.5" transform="matrix(0.7071 -0.7071 0.7071 0.7071 -554.0963 -26.3863)" class="st3" width="24.6" height="22.4"/>
				
					<rect x="-337.2" y="665" transform="matrix(0.7071 -0.7071 0.7071 0.7071 -574.6398 -34.843)" class="st3" width="15.7" height="22.4"/>
				
					<rect x="-351.2" y="680.1" transform="matrix(0.7071 -0.7071 0.7071 0.7071 -589.7236 -41.0991)" class="st3" width="13.4" height="22.4"/>
				
					<rect x="-85.8" y="787.2" transform="matrix(0.7071 -0.7071 0.7071 0.7071 -588.3574 176.3209)" class="st3" width="9" height="22.4"/>
				
					<rect x="-138.9" y="837.7" transform="matrix(0.7071 -0.7071 0.7071 0.7071 -638.8567 155.3921)" class="st3" width="14" height="22.4"/>
				
					<rect x="-120.8" y="816.4" transform="matrix(0.7071 -0.7071 0.7071 0.7071 -617.5723 164.2396)" class="st3" width="20.6" height="22.4"/>
				
					<rect x="-103.8" y="800.4" transform="matrix(0.7071 -0.7071 0.7071 0.7071 -601.574 170.8559)" class="st3" width="18.6" height="22.4"/>
				
					<rect x="476.4" y="894.2" transform="matrix(0.7071 -0.7071 0.7071 0.7071 -498.961 606.1627)" class="st3" width="11.6" height="22.4"/>
				
					<rect x="412.9" y="947.1" transform="matrix(0.7071 -0.7071 0.7071 0.7071 -551.9662 584.1333)" class="st3" width="32.4" height="22.4"/>
				
					<rect x="386.9" y="979.5" transform="matrix(0.7071 -0.7071 0.7071 0.7071 -584.3039 570.7372)" class="st3" width="19.7" height="22.4"/>
				
					<rect x="461.3" y="907.3" transform="matrix(0.7071 -0.7071 0.7071 0.7071 -512.0401 600.7526)" class="st3" width="15.7" height="22.4"/>
				
					<rect x="448.2" y="920.8" transform="matrix(0.7071 -0.7071 0.7071 0.7071 -525.6104 595.1033)" class="st3" width="14.7" height="22.4"/>
				
					<rect x="398" y="1258.4" transform="matrix(0.7071 -0.7071 0.7071 0.7071 -778.8629 658.9124)" class="st3" width="15.9" height="22.4"/>
				
					<rect x="350.4" y="1305.2" transform="matrix(0.7071 -0.7071 0.7071 0.7071 -825.571 639.6286)" class="st3" width="17.9" height="22.4"/>
				
					<rect x="384.5" y="1273.1" transform="matrix(0.7071 -0.7071 0.7071 0.7071 -793.5003 652.8628)" class="st3" width="13.7" height="22.4"/>
				
					<rect x="374.3" y="1284.2" transform="matrix(0.7071 -0.7071 0.7071 0.7071 -804.6309 648.288)" class="st3" width="11.8" height="22.4"/>
				
					<rect x="501.5" y="1237.1" transform="matrix(0.7071 -0.7071 0.7071 0.7071 -733.5425 725.6082)" class="st3" width="15.3" height="22.4"/>
				
					<rect x="492.7" y="1249" transform="matrix(0.7071 -0.7071 0.7071 0.7071 -745.4789 720.5815)" class="st3" width="8.8" height="22.4"/>
				
					<rect x="483.9" y="1258.9" transform="matrix(0.707 -0.7072 0.7072 0.707 -755.4102 716.7957)" class="st3" width="6.9" height="22.4"/>
				
					<rect x="458.8" y="1278.9" transform="matrix(0.7071 -0.7071 0.7071 0.7071 -775.4268 708.2322)" class="st3" width="16.7" height="22.4"/>
				
					<rect x="455" y="1288.3" transform="matrix(0.707 -0.7072 0.7072 0.707 -784.8777 704.5704)" class="st3" width="5.8" height="22.4"/>
				
					<rect x="126.4" y="742.5" transform="matrix(0.7071 -0.7071 0.7071 0.7071 -494.5428 313.471)" class="st3" width="9.4" height="22.4"/>
				
					<rect x="108.7" y="756.5" transform="matrix(0.7071 -0.7071 0.7071 0.7071 -508.5701 307.6339)" class="st3" width="16.7" height="22.4"/>
				
					<rect x="87.7" y="779.5" transform="matrix(0.7071 -0.7071 0.7071 0.7071 -531.5231 298.1424)" class="st3" width="12.8" height="22.4"/>
				
					<rect x="74" y="793.7" transform="matrix(0.7071 -0.7071 0.7071 0.7071 -545.7662 292.2536)" class="st3" width="11.7" height="22.4"/>
				
					<rect x="-832.1" y="-206.6" transform="matrix(0.7071 -0.7071 0.7071 0.7071 -104.1674 -642.3353)" class="st3" width="9.2" height="22.4"/>
				
					<rect x="-843.2" y="-195.4" transform="matrix(0.7071 -0.7071 0.7071 0.7071 -115.3907 -646.9541)" class="st3" width="9.2" height="22.4"/>
				
					<rect x="-867.5" y="-171.1" transform="matrix(0.7071 -0.7071 0.7071 0.7071 -139.6911 -657.0206)" class="st3" width="9.2" height="22.4"/>
			</g>
		</g>
	</g>
</g>
</svg>
