<?xml version="1.0" encoding="utf-8"?>
<!-- Generator: Adobe Illustrator 24.0.2, SVG Export Plug-In . SVG Version: 6.00 Build 0)  -->
<svg version="1.1" id="Layer_1" xmlns="http://www.w3.org/2000/svg" xmlns:xlink="http://www.w3.org/1999/xlink" x="0px" y="0px"
	 viewBox="0 0 330.7 330.7" style="enable-background:new 0 0 330.7 330.7;" xml:space="preserve">
<style type="text/css">
	.st0{fill:#3B82F6;}
</style>
<title>logo</title>
<path class="st0" d="M242.4,4.4H89.1C42.2,4.4,3.8,42.8,3.8,89.7V243c0,46.9,38.4,85.3,85.3,85.3h153.3c46.9,0,85.3-38.4,85.3-85.3
	V89.7C327.7,42.8,289.3,4.4,242.4,4.4z M121.3,228.7c-1.9,1.8-3.7,3.8-5.6,5.6c-5.6,5.6-7.8,5.6-13.6-0.2
	c-9-8.9-17.9-17.9-26.9-26.7c-11.8-11.7-23.6-23.2-35.5-34.8c-1.2-1.2-2.5-2.3-3.7-3.4v-6.8c9.8-9.7,19.3-19.5,29.2-29
	c13.4-12.9,27.1-25.6,40.7-38.3c1.1-0.9,2.3-1.6,3.6-2.3c3.8,3.6,7.2,7.4,11.1,10.7c3.8,3.3,3.7,6.9,0.4,10.1
	c-11.1,10.7-22.4,21.2-33.6,31.8c-6.1,5.8-12.2,11.8-18.3,17.6c-2.6,2.5-1.2,4.1,0.7,6c13.1,12.7,26.2,25.4,39.2,38.2
	c4.2,4.1,8.2,8.4,12.3,12.4C124.6,222.8,124.5,225.7,121.3,228.7z M181.7,149.1c-9.2,32.3-18.3,64.6-27.7,96.9
	c-1.6,5.8-3.9,11.5-5.9,17.3l-21.5-0.1c1.3-6.7,2.1-13.4,3.9-20c13.8-49.2,27.7-98.4,41.8-147.6c2.6-9,5-18.1,7.5-27.2h24.9
	C197.1,95.4,189.4,122.2,181.7,149.1z M295.6,175.7c-18.7,18-37.5,36-56.3,54c-2.3,2.2-4.5,4.6-6.7,6.8c-3,3-6.1,3.2-9.2,0
	c-2.6-2.7-5.3-5.4-8-8c-2.9-2.9-3.4-5.1,0-8.4c16.8-16.2,33.4-32.6,50.1-49c1.5-1.6,3.1-3.2,6.4-6.5c-4-3.1-8.1-5.7-11.6-9
	c-11.3-10.9-22.1-22.2-33.2-33.2c-3.1-3-6.7-5.5-9.6-8.6c-3.4-3.5-4-6.8,0.2-10.9c12.9-12.4,10.2-12,22.6,0.3
	c15.6,15.5,31.5,30.7,47.2,46c3.2,3.1,7.1,5.7,9.7,9.2C302.4,165.4,301.8,169.8,295.6,175.7z"/>
</svg>
