<?xml version="1.0" encoding="utf-8"?>
<!-- Generator: Adobe Illustrator 24.0.2, SVG Export Plug-In . SVG Version: 6.00 Build 0)  -->
<svg version="1.1" id="Layer_1" xmlns="http://www.w3.org/2000/svg" xmlns:xlink="http://www.w3.org/1999/xlink" x="0px" y="0px"
	 viewBox="0 0 1129.8 332" style="enable-background:new 0 0 1129.8 332;" xml:space="preserve">
<style type="text/css">
	.st0{fill:#3B82F6;}
	.st1{enable-background:new    ;}
	.st2{fill:#FFFFFF;}
</style>
<path class="st0" d="M1049,46.5h-118c-36.1,0-65.7,29.5-65.7,65.6v118.1c0,36.1,29.5,65.6,65.7,65.6h118c36.1,0,65.7-29.5,65.7-65.6
	V112.1C1114.6,76,1085.1,46.5,1049,46.5z M955.8,219.2c-1.5,1.4-2.9,2.9-4.3,4.3c-4.3,4.3-6,4.3-10.5-0.2
	c-6.9-6.9-13.7-13.8-20.7-20.6c-9.1-9-18.2-17.9-27.4-26.8c-0.9-0.9-1.9-1.7-2.8-2.6v-5.2c7.5-7.5,14.9-15,22.5-22.3
	c10.3-9.9,20.8-19.7,31.3-29.5c0.9-0.7,1.8-1.3,2.8-1.8c2.9,2.8,5.6,5.7,8.5,8.2c3,2.5,2.9,5.3,0.3,7.8
	c-8.5,8.3-17.2,16.4-25.9,24.5c-4.7,4.5-9.4,9.1-14.1,13.6c-2,1.9-0.9,3.2,0.6,4.6c10.1,9.8,20.2,19.6,30.2,29.4
	c3.2,3.2,6.3,6.4,9.5,9.6C958.2,214.6,958.1,216.8,955.8,219.2z M1002.2,157.9c-7.1,24.9-14.1,49.7-21.3,74.6
	c-1.3,4.5-3,8.9-4.5,13.3l-16.5,0c1-5.1,1.6-10.3,3-15.4c10.6-37.9,21.4-75.8,32.2-113.6c2-7,3.9-14,5.8-21h19.2
	C1014.1,116.5,1008.2,137.2,1002.2,157.9z M1089.9,178.4c-14.4,13.9-28.8,27.7-43.3,41.5c-1.8,1.7-3.4,3.5-5.2,5.3
	c-2.3,2.3-4.7,2.5-7.1,0c-2-2.1-4.1-4.1-6.1-6.2c-2.2-2.2-2.6-4,0-6.4c13-12.5,25.7-25.1,38.6-37.7c1.2-1.2,2.4-2.4,4.9-5
	c-3.1-2.4-6.3-4.4-8.9-7c-8.7-8.4-17-17.1-25.6-25.5c-2.4-2.3-5.1-4.2-7.4-6.6c-2.6-2.7-3.1-5.2,0.2-8.4c9.9-9.6,7.9-9.2,17.4,0.2
	c12,11.9,24.2,23.6,36.4,35.4c2.5,2.4,5.5,4.4,7.5,7.1C1095.2,170.4,1094.7,173.8,1089.9,178.4z"/>
<title>logo-dark</title>
<g class="st1">
	<path class="st2" d="M197,56.4h36.6v151.3h-29.3v-94.2l-23.5,94.2h-9.4l-23.5-94.2v94.2h-29.3V56.4h36.6l20.9,75.3L197,56.4z"/>
	<path class="st2" d="M249.2,56.4h91.3v151.3h-91.3V56.4z M281,179.1h27.8V85.2H281V179.1z"/>
	<path class="st2" d="M437.6,207.7h-83.2v-47.1h31.7v18.4h19.7V155l-50.3-38V56.4h81.2v45h-28.8V85.3h-20.7v19.8l50.4,37.9V207.7z"
		/>
	<path class="st2" d="M541.4,85.2h-28.6v122.5H481V85.2h-29.6V56.4h90.1V85.2z"/>
	<path class="st2" d="M554.3,56.4h73.5v28.8h-42.1v29.2h40v28.3h-39.6v36.4h42.7v28.7h-74.5V56.4z"/>
	<path class="st2" d="M672.1,142.6v65.1h-31.7V77.3l20.9-20.9h51.4v28.8h-40.6v29.2h37.5v28.3H672.1z"/>
	<path class="st2" d="M757.7,207.7h-31.8V80.4l24.4-24h66.1v151.3h-31.7V158h-27V207.7z M784.7,129.2V85.2h-27v44.1H784.7z"/>
</g>
<g class="st1">
	<path class="st0" d="M222.8,230.5c1.5-0.3,2.8-0.5,3.9-0.6c1.1-0.1,2.1-0.1,3.3-0.1c1.2,0,2.4,0,3.7,0.1c1.3,0.1,2.8,0.3,4.4,0.6
		l-15.2,63c-0.9,0.2-2,0.4-3.4,0.5c-1.4,0.2-2.9,0.3-4.5,0.3c-1.6,0-3.3-0.1-4.8-0.3c-1.6-0.2-2.6-0.4-3.1-0.5l-8.4-36.5l-8.9,36.5
		c-0.5,0.1-1.5,0.3-3,0.5c-1.4,0.2-3,0.3-4.6,0.3c-1.6,0-3.1-0.1-4.4-0.3c-1.3-0.2-2.4-0.4-3.3-0.5l-14.9-62.9
		c1.6-0.3,3.2-0.5,4.8-0.6c1.5-0.1,2.9-0.2,4.1-0.2c1.1,0,2.3,0,3.5,0.1c1.2,0.1,2.6,0.3,4.1,0.6l7.3,40.3
		c1.5-6.5,2.9-13.2,4.4-20.3c1.5-7,2.9-13.7,4.3-20.1c1.1-0.2,2.2-0.3,3.5-0.5c1.3-0.1,2.6-0.2,4-0.2c1.2,0,2.4,0.1,3.6,0.2
		c1.2,0.1,2.3,0.3,3.2,0.5l9.2,40.8L222.8,230.5z"/>
	<path class="st0" d="M277.1,260.6c0,2.1-0.3,4.4-0.8,6.9h-17v12.5h22.2c0.5,2.5,0.8,4.7,0.8,6.7c0,2.2-0.3,4.5-0.8,7h-37.8v-63.5
		h37.2c0.2,1.3,0.4,2.5,0.5,3.6c0.1,1.1,0.2,2.2,0.2,3.2c0,1.9-0.2,4.3-0.7,7h-21.6v9.7h17C276.8,256.3,277.1,258.6,277.1,260.6z"/>
	<path class="st0" d="M334.8,275.2c0,3.9-0.7,7.1-2.1,9.6c-1.4,2.5-3.4,4.5-5.8,6c-2.5,1.5-5.4,2.5-8.8,3.1
		c-3.4,0.6-7.1,0.9-11.1,0.9c-3.2,0-6-0.1-8.6-0.4c-2.5-0.2-5.3-0.5-8.2-0.9v-63.1c2.2-0.4,4.7-0.6,7.3-0.9c2.6-0.2,5.7-0.4,9.3-0.4
		c3.4,0,6.5,0.3,9.4,0.8c2.9,0.6,5.5,1.5,7.6,2.8c2.2,1.3,3.9,3.1,5.2,5.3c1.3,2.2,1.9,5,1.9,8.3c0,2.8-0.6,5.3-1.9,7.5
		c-1.2,2.3-2.8,4-4.7,5.3c1.4,0.5,2.7,1.2,3.9,2.1c1.3,0.9,2.4,1.9,3.4,3.2c1,1.3,1.8,2.8,2.3,4.5
		C334.5,270.9,334.8,272.9,334.8,275.2z M305.4,254.5h2.5c2.5,0,4.5-0.5,5.9-1.5c1.4-1,2.1-2.8,2.1-5.3c0-1.2-0.3-2.3-0.8-3.1
		c-0.5-0.8-1.1-1.5-1.9-1.9c-0.8-0.5-1.6-0.8-2.6-1c-0.9-0.2-1.9-0.3-2.7-0.3c-0.4,0-0.8,0-1.3,0c-0.5,0-0.9,0-1.3,0.1V254.5z
		 M305.4,267.1v14.8c0.4,0.1,0.9,0.1,1.5,0.1c0.6,0,1.4,0,2.4,0c1.1,0,2.3-0.1,3.4-0.4c1.1-0.2,2.2-0.6,3.1-1.2
		c0.9-0.6,1.7-1.3,2.3-2.3c0.6-1,0.8-2.2,0.8-3.7c0-2.8-0.9-4.8-2.8-5.9c-1.9-1.1-4.3-1.6-7.2-1.6H305.4z"/>
	<path class="st0" d="M379.8,229.2c11.1,0,19.6,2.8,25.3,8.3c5.8,5.6,8.7,13.8,8.7,24.8c0,11.2-2.9,19.4-8.8,24.6
		c-5.9,5.2-14.6,7.8-26.1,7.8c-2.9,0-5.8-0.1-8.5-0.4c-2.7-0.3-5.4-0.6-8.1-0.9v-63c0.9-0.1,2-0.3,3.4-0.4c1.4-0.1,2.8-0.3,4.4-0.4
		c1.6-0.1,3.2-0.2,4.9-0.3S378.3,229.2,379.8,229.2z M377.9,280.9c0.4,0.1,0.9,0.1,1.4,0.1c0.5,0,1.1,0,1.7,0c2.3,0,4.5-0.3,6.5-0.8
		c2-0.6,3.8-1.5,5.3-3c1.5-1.4,2.6-3.3,3.5-5.7c0.9-2.4,1.3-5.5,1.3-9.3c0-3.7-0.4-6.8-1.3-9.3c-0.9-2.5-2-4.4-3.5-5.9
		c-1.4-1.4-3.1-2.5-5.1-3.1c-1.9-0.6-4-0.9-6.1-0.9c-1.2,0-2,0-2.6,0c-0.5,0-0.9,0-1.1,0V280.9z"/>
	<path class="st0" d="M456.2,260.6c0,2.1-0.3,4.4-0.8,6.9h-17v12.5h22.2c0.5,2.5,0.8,4.7,0.8,6.7c0,2.2-0.3,4.5-0.8,7h-37.8v-63.5
		H460c0.2,1.3,0.4,2.5,0.5,3.6c0.1,1.1,0.2,2.2,0.2,3.2c0,1.9-0.2,4.3-0.7,7h-21.6v9.7h17C455.9,256.3,456.2,258.6,456.2,260.6z"/>
	<path class="st0" d="M492.9,273.2l12.1-42.7c1.4-0.2,2.7-0.4,4.1-0.5c1.4-0.1,2.8-0.2,4.4-0.2c1,0,2.2,0.1,3.7,0.2
		c1.5,0.1,2.8,0.3,3.9,0.5l-20.3,63.1c-1.5,0.2-3,0.4-4.3,0.5c-1.3,0.1-2.6,0.2-3.8,0.2c-1.2,0-2.4-0.1-3.6-0.2
		c-1.2-0.1-2.7-0.3-4.4-0.5l-20.2-63.1c1-0.2,2.3-0.3,4-0.5c1.6-0.1,3.2-0.2,4.8-0.2c1.2,0,2.6,0.1,4.1,0.2c1.5,0.1,2.8,0.3,3.9,0.5
		L492.9,273.2z"/>
	<path class="st0" d="M560.3,260.6c0,2.1-0.3,4.4-0.8,6.9h-17v12.5h22.2c0.5,2.5,0.8,4.7,0.8,6.7c0,2.2-0.3,4.5-0.8,7h-37.8v-63.5
		h37.3c0.2,1.3,0.4,2.5,0.5,3.6c0.1,1.1,0.2,2.2,0.2,3.2c0,1.9-0.2,4.3-0.7,7h-21.6v9.7h17C560,256.3,560.3,258.6,560.3,260.6z"/>
	<path class="st0" d="M573.3,230.5c1.6-0.2,3-0.4,4.3-0.5c1.3-0.1,2.4-0.2,3.4-0.2c1.1,0,2.3,0.1,3.6,0.2c1.3,0.1,2.8,0.3,4.3,0.5
		v49.4h20.4c0.3,1.5,0.5,2.8,0.6,3.8c0.1,1.1,0.1,2.1,0.1,3c0,1,0,2-0.1,3.1s-0.3,2.4-0.6,3.9h-36V230.5z"/>
	<path class="st0" d="M615,262.2c0-4.7,0.5-9.1,1.6-13.1c1.1-4,2.8-7.5,5-10.5c2.3-2.9,5.1-5.3,8.7-6.9c3.5-1.7,7.7-2.5,12.5-2.5
		c4.8,0,9,0.8,12.4,2.5c3.5,1.7,6.3,4,8.6,6.9c2.3,2.9,3.9,6.4,5,10.5c1.1,4,1.6,8.4,1.6,13.1s-0.5,9-1.6,13c-1.1,4-2.8,7.4-5,10.3
		c-2.3,2.9-5.1,5.2-8.6,6.8c-3.5,1.6-7.6,2.4-12.4,2.4c-4.8,0-9-0.8-12.5-2.4c-3.5-1.6-6.4-3.9-8.7-6.8c-2.3-2.9-3.9-6.4-5-10.3
		C615.5,271.3,615,266.9,615,262.2z M654.1,262.2c0-12.8-3.7-19.2-11.2-19.2c-7.7,0-11.5,6.4-11.5,19.2c0,6.4,0.9,11.2,2.8,14.3
		c1.9,3.1,4.7,4.7,8.6,4.7C650.3,281.3,654.1,274.9,654.1,262.2z"/>
	<path class="st0" d="M679.4,230.5c1.4-0.2,3.4-0.4,6.2-0.8c2.8-0.3,6.3-0.5,10.5-0.5c3.1,0,6.3,0.3,9.4,0.9c3.2,0.6,6,1.7,8.6,3.3
		c2.6,1.6,4.6,3.9,6.2,6.8c1.6,2.9,2.4,6.8,2.4,11.5c0,4.2-0.6,7.7-1.9,10.4c-1.3,2.8-2.9,5-5,6.6c-2.1,1.6-4.5,2.8-7.2,3.5
		s-5.4,1.1-8.3,1.1c-1.1,0-2.3,0-3.4-0.1c-1.1-0.1-2-0.2-2.4-0.3v20.6c-1.5,0.3-2.9,0.5-4.1,0.6c-1.2,0.1-2.4,0.2-3.4,0.2
		c-2.1,0-4.6-0.3-7.7-0.8V230.5z M694.7,260.3c0.3,0.1,0.8,0.2,1.5,0.3c0.7,0.1,1.4,0.1,2.2,0.1c2.5,0,4.6-0.7,6.2-2.2
		c1.6-1.5,2.4-3.7,2.4-6.7c0-1.8-0.3-3.3-0.8-4.5c-0.5-1.2-1.2-2.2-2.1-2.9c-0.9-0.7-1.9-1.3-3.1-1.5c-1.2-0.3-2.4-0.4-3.7-0.4
		c-0.4,0-0.8,0-1.2,0c-0.5,0-0.9,0-1.4,0.1V260.3z"/>
	<path class="st0" d="M764.5,260.6c0,2.1-0.3,4.4-0.8,6.9h-17v12.5h22.2c0.5,2.5,0.8,4.7,0.8,6.7c0,2.2-0.3,4.5-0.8,7h-37.8v-63.5
		h37.3c0.2,1.3,0.4,2.5,0.5,3.6c0.1,1.1,0.2,2.2,0.2,3.2c0,1.9-0.2,4.3-0.7,7h-21.6v9.7h17C764.3,256.3,764.5,258.6,764.5,260.6z"/>
	<path class="st0" d="M777.6,230.5c2.9-0.3,5.5-0.6,8-0.8c2.4-0.3,5-0.4,7.7-0.4c3.2,0,6.5,0.3,9.7,0.9c3.2,0.6,6.1,1.7,8.7,3.2
		c2.5,1.5,4.6,3.6,6.2,6.3c1.6,2.6,2.4,6,2.4,10.1c0,2.2-0.3,4.1-0.8,5.9c-0.5,1.7-1.1,3.3-1.9,4.6c-0.8,1.4-1.7,2.5-2.6,3.5
		c-1,1-1.9,1.9-2.9,2.6l13.8,27.2c-1.4,0.2-3,0.4-4.6,0.5c-1.7,0.1-3.2,0.2-4.5,0.2c-1.2,0-2.5-0.1-4.1-0.2
		c-1.6-0.1-2.9-0.3-4.1-0.5l-12.5-28.9l0.8-0.4c0.7-0.4,1.5-0.9,2.3-1.8c0.9-0.8,1.6-1.8,2.4-3c0.7-1.1,1.4-2.4,1.9-3.8
		c0.5-1.4,0.8-2.9,0.8-4.4c0-2.9-0.8-5.1-2.5-6.4c-1.6-1.4-3.7-2-6.1-2c-0.6,0-1.1,0-1.5,0.1c-0.4,0.1-0.7,0.1-0.8,0.2v50.5
		c-3.1,0.5-5.7,0.8-7.7,0.8c-2.2,0-4.8-0.3-7.9-0.8V230.5z"/>
</g>
</svg>
